<?xml version="1.0" standalone="no"?>
<!DOCTYPE svg PUBLIC "-//W3C//DTD SVG 20010904//EN"
 "http://www.w3.org/TR/2001/REC-SVG-20010904/DTD/svg10.dtd">
<svg version="1.0" xmlns="http://www.w3.org/2000/svg"
 width="900.000000pt" height="1200.000000pt" viewBox="0 0 900.000000 1200.000000"
 preserveAspectRatio="xMidYMid meet">
<metadata>
Created by potrace 1.10, written by Peter Selinger 2001-2011
</metadata>
<g transform="translate(0.000000,1200.000000) scale(0.100000,-0.100000)"
fill="#000000" stroke="none">
<path d="M0 10210 l0 -1790 31 0 c38 0 35 -24 -4 -28 l-27 -3 0 -345 0 -344
28 0 c30 0 52 -16 52 -37 0 -8 -14 -13 -40 -13 l-40 0 0 -990 c0 -544 3 -990
6 -990 3 0 31 12 62 26 31 14 66 30 77 35 24 11 187 66 235 80 139 41 369 79
472 79 35 0 90 7 121 15 62 16 149 19 182 6 18 -7 17 -9 -11 -24 -40 -21 -46
-36 -34 -98 6 -33 6 -57 0 -69 -13 -25 -13 -80 1 -80 6 0 13 8 15 18 6 22 52
48 124 71 89 29 143 39 176 34 26 -4 38 1 68 32 39 39 38 39 131 20 30 -6 30
-6 47 57 9 35 30 110 47 168 17 58 30 107 31 110 0 3 -60 6 -132 6 -180 0
-320 13 -337 30 -12 11 -11 14 10 22 13 5 57 15 97 22 40 8 75 17 78 22 3 5
11 5 17 -1 10 -7 159 -16 215 -12 29 2 3 26 -29 27 -19 0 -101 6 -184 13 -316
26 -534 31 -684 16 -59 -6 -73 -5 -69 6 4 11 47 28 184 70 17 5 50 9 75 9 24
0 73 5 109 10 36 6 201 10 368 10 191 0 309 3 322 10 24 13 40 -12 40 -65 0
-29 -8 -45 -35 -72 -35 -35 -45 -66 -25 -78 6 -4 17 -1 25 5 39 32 60 -33 33
-97 -7 -15 -15 -82 -19 -148 -4 -66 -10 -168 -15 -227 -5 -76 -3 -112 5 -121
12 -16 13 -24 12 -162 0 -55 4 -134 10 -175 6 -41 8 -90 5 -109 -3 -19 0 -54
6 -78 8 -33 7 -47 -2 -58 -21 -26 -37 -17 -44 25 -7 44 -41 73 -57 49 -13 -20
-11 -35 6 -49 8 -7 15 -27 15 -46 0 -42 14 -49 107 -58 71 -6 72 -6 85 21 12
26 18 28 73 28 l60 0 -3 -32 c-3 -27 4 -36 52 -74 56 -44 78 -77 91 -135 5
-27 1 -38 -25 -68 -33 -37 -80 -50 -80 -21 0 14 -32 13 -79 -1 -7 -2 -20 1
-28 7 -21 18 -35 -2 -31 -47 3 -34 7 -39 33 -44 52 -11 92 -38 106 -72 16 -37
18 -121 5 -157 -8 -22 -7 -23 31 -16 50 8 81 -15 93 -69 13 -60 -2 -117 -48
-177 -22 -29 -39 -55 -38 -57 2 -2 34 4 72 13 37 8 124 20 192 26 69 5 132 13
141 18 43 22 173 44 228 38 74 -8 107 -32 111 -81 4 -48 -18 -81 -66 -102 -64
-27 -186 -64 -213 -64 -14 0 -52 -9 -85 -19 -32 -11 -111 -33 -174 -50 -63
-17 -128 -36 -145 -42 -103 -38 -309 -91 -356 -93 -44 -1 -64 -8 -92 -29 -34
-26 -41 -27 -144 -27 -70 1 -125 -5 -157 -15 -27 -8 -67 -15 -89 -15 -35 0
-107 -32 -107 -47 0 -3 14 -3 30 -1 18 3 35 -1 42 -9 13 -16 14 -16 -40 -36
-61 -24 -154 -23 -176 2 -10 11 -15 25 -11 30 3 6 -1 11 -9 11 -9 0 -15 -5
-14 -12 2 -8 -8 -11 -30 -9 -18 1 -38 -2 -45 -7 -7 -5 -34 -12 -62 -15 -56 -7
-210 -46 -330 -84 -85 -26 -124 -25 -157 5 -10 8 -18 23 -18 33 0 33 -17 29
-46 -9 -73 -98 -145 -141 -259 -157 -69 -9 -80 -13 -80 -30 0 -11 -14 -28 -32
-40 -25 -16 -32 -27 -33 -52 0 -28 4 -33 23 -33 13 0 28 5 34 11 8 8 13 8 17
0 4 -6 20 -11 35 -11 22 0 31 -7 41 -30 10 -25 10 -34 -4 -56 -23 -34 -124
-134 -136 -134 -6 0 -10 -78 -10 -195 l0 -195 53 -41 c28 -23 68 -49 87 -58
19 -9 57 -31 85 -48 27 -18 54 -33 60 -33 6 0 30 -20 54 -44 43 -44 44 -45 27
-70 -9 -14 -29 -33 -44 -43 -28 -18 -161 -141 -196 -182 -18 -21 -74 -83 -114
-126 -9 -10 -12 -110 -12 -427 0 -402 1 -414 20 -426 11 -7 20 -22 20 -35 -1
-20 -2 -21 -14 -4 -7 9 -16 17 -20 17 -3 0 -6 -225 -6 -500 l0 -500 625 0 625
0 0 22 c0 12 -9 32 -21 44 -11 12 -26 37 -32 56 -16 46 -53 91 -68 83 -6 -4
-14 -2 -18 4 -4 6 -25 14 -47 18 -22 3 -54 19 -72 35 -34 29 -45 32 -128 28
-58 -2 -80 15 -70 55 9 36 -16 33 -68 -7 -63 -50 -74 -61 -78 -83 -6 -34 -34
-28 -77 17 -22 24 -41 48 -41 54 0 6 -7 17 -15 24 -8 7 -12 16 -9 21 9 16 108
10 133 -7 27 -19 36 -12 45 38 5 29 3 39 -11 47 -14 9 -15 12 -5 19 20 13 11
55 -13 62 -33 9 -65 34 -65 52 0 31 -12 48 -46 64 -32 15 -35 15 -60 -5 -34
-27 -43 -26 -100 4 -26 14 -57 25 -69 25 -45 0 -64 61 -70 219 -4 128 -12 184
-27 214 -6 13 -5 23 4 34 7 9 13 37 13 64 0 33 6 54 20 69 18 20 18 22 2 31
-21 12 -22 45 -1 57 10 5 17 25 19 53 5 67 44 128 45 70 1 -9 10 -27 21 -40
l20 -24 46 22 c25 12 53 19 63 16 13 -4 22 3 33 25 9 17 11 32 6 36 -16 10
-10 30 14 43 21 11 27 9 56 -20 28 -27 33 -40 37 -92 2 -34 11 -68 19 -77 8
-9 15 -21 15 -27 0 -9 7 -19 48 -69 20 -23 1 -69 -39 -94 -51 -31 -101 -80
-96 -93 2 -6 11 -15 20 -21 13 -8 21 -5 37 12 25 27 48 28 67 5 10 -13 16 -15
19 -5 9 19 31 14 37 -8 6 -24 30 -26 48 -4 10 12 10 27 2 66 -8 40 -7 51 4 55
27 10 42 -7 64 -75 22 -68 22 -70 3 -95 -10 -15 -27 -27 -36 -27 -24 0 -68
-43 -68 -66 0 -11 -7 -28 -15 -38 -19 -26 -20 -77 -1 -70 9 3 15 -5 19 -25 4
-17 10 -31 14 -31 5 1 27 24 51 53 23 29 58 70 78 92 l35 40 18 -25 c11 -13
24 -42 31 -65 6 -22 18 -53 26 -68 8 -16 14 -37 14 -47 0 -33 12 -50 36 -50
25 0 34 -20 33 -70 -2 -52 17 -180 28 -191 7 -7 19 -9 28 -6 13 6 15 23 14
104 0 54 2 135 6 180 6 74 5 83 -12 94 -20 12 -20 12 0 63 17 42 21 75 21 181
1 113 4 136 24 177 12 26 22 54 22 63 0 21 -27 30 -44 15 -11 -8 -20 -9 -35 0
-11 6 -32 8 -46 4 -19 -5 -25 -2 -25 10 0 17 -62 50 -112 60 -15 4 -52 30 -83
59 -44 41 -64 53 -98 57 -40 5 -42 7 -45 43 -2 23 -12 46 -28 62 -16 16 -24
35 -24 58 0 19 -7 40 -15 47 -17 14 -20 46 -5 55 13 8 13 62 0 70 -17 11 -11
19 45 64 30 24 69 64 85 89 16 25 38 51 49 58 23 17 149 25 175 12 34 -18 40
7 12 55 -37 62 -60 81 -106 81 -66 1 -54 13 22 22 86 9 126 7 193 -11 28 -7
66 -16 86 -19 21 -4 52 -17 71 -30 19 -12 45 -26 59 -29 40 -10 154 -126 178
-181 22 -51 19 -50 86 -28 79 27 137 35 162 21 31 -17 52 -5 78 47 27 52 43
74 112 152 87 99 164 172 179 172 7 0 23 19 35 41 26 53 70 93 117 109 28 9
42 22 57 53 12 24 44 59 78 85 55 44 58 45 72 26 22 -29 18 -41 -29 -86 -36
-33 -43 -45 -35 -59 7 -13 15 -16 30 -11 20 8 81 55 125 97 25 25 39 97 23
127 -9 18 -7 24 17 43 54 43 169 85 231 85 17 0 50 7 74 16 24 8 73 20 108 25
63 9 65 9 102 -21 21 -16 42 -30 47 -30 5 0 17 -9 27 -20 15 -16 15 -22 5 -35
-7 -8 -19 -15 -28 -15 -21 0 -132 -34 -267 -82 -60 -22 -134 -46 -163 -54 -98
-26 -130 -49 -157 -111 -30 -67 -33 -103 -7 -103 10 0 29 12 43 26 23 26 117
74 169 87 14 4 45 26 70 50 79 76 155 107 311 126 l73 10 44 -41 c24 -22 73
-53 108 -69 99 -45 356 -228 374 -267 5 -13 16 -22 23 -20 15 6 22 78 8 78
-19 0 -12 42 19 107 17 34 30 68 30 73 0 19 16 10 58 -33 42 -43 42 -44 45
-123 1 -57 -3 -95 -18 -137 -18 -53 -18 -60 -4 -70 44 -33 69 -116 68 -222 -1
-86 6 -119 33 -157 10 -13 8 -32 -7 -90 -24 -96 -35 -118 -55 -118 -10 0 -28
-9 -42 -19 -13 -11 -38 -23 -54 -26 -16 -4 -39 -19 -51 -33 -17 -20 -25 -23
-36 -14 -11 10 -21 4 -52 -29 -34 -37 -42 -41 -75 -36 -21 3 -42 2 -48 -2 -16
-10 -32 -58 -32 -99 0 -26 -6 -41 -20 -49 -31 -20 -48 -6 -55 48 -7 48 -36 99
-58 99 -6 0 -21 -10 -34 -22 -21 -20 -26 -20 -62 -8 -21 7 -44 10 -50 6 -6 -4
-10 -44 -10 -101 0 -52 -5 -104 -11 -116 -9 -16 -9 -24 0 -33 17 -16 45 29 46
74 0 51 22 100 44 100 20 0 30 -19 30 -58 0 -39 -63 -178 -93 -206 -44 -40
-46 -97 -3 -80 11 4 15 13 11 25 -7 20 9 27 20 9 10 -16 33 -12 55 10 14 14
28 18 44 14 34 -8 58 8 101 66 20 27 41 50 47 50 6 0 26 14 45 30 18 17 40 30
48 30 7 0 17 9 20 21 7 21 60 59 83 59 8 0 27 14 42 30 32 34 48 38 57 13 4
-10 15 -30 26 -44 19 -26 18 -27 -13 -120 -25 -75 -31 -105 -27 -146 6 -55 -9
-125 -38 -181 -13 -25 -21 -31 -36 -27 -25 8 -39 -28 -39 -100 0 -94 -51 -215
-121 -290 -11 -11 -32 -35 -48 -54 -18 -23 -33 -32 -44 -28 -14 5 -14 10 1 57
16 49 16 51 -6 73 -35 34 -41 11 -38 -139 4 -145 7 -133 -67 -234 -21 -29 -51
-54 -84 -70 -29 -14 -55 -29 -59 -33 -4 -4 33 -7 83 -7 l91 0 13 33 c7 17 16
34 19 37 25 21 52 72 70 131 22 70 52 116 80 121 12 3 14 -21 11 -159 l-3
-163 115 0 c96 0 116 3 121 16 9 24 7 34 -6 32 -6 -2 -14 5 -16 15 -2 10 2 17
11 17 17 0 22 28 38 200 6 63 12 117 14 119 2 2 11 -4 20 -13 26 -26 41 -19
59 29 17 44 19 45 60 45 44 0 90 -30 67 -45 -14 -8 -14 -25 0 -25 6 0 13 9 16
19 3 13 17 21 47 25 48 8 86 37 86 66 0 20 0 20 20 0 11 -11 20 -26 20 -34 0
-8 14 -20 30 -28 16 -7 30 -16 30 -20 0 -12 90 -5 101 9 6 7 17 13 25 13 7 0
25 11 40 25 18 17 37 25 53 23 31 -4 40 -34 16 -52 -22 -16 -9 -46 20 -46 19
0 24 6 27 33 2 27 8 33 31 35 16 2 31 10 34 18 4 12 8 12 18 -3 12 -17 14 -17
32 -1 21 19 88 19 137 -1 20 -8 38 -9 60 -2 17 6 52 13 78 17 40 5 48 4 48
-10 0 -20 24 -21 40 -1 18 22 50 19 50 -5 0 -15 7 -20 28 -20 15 0 34 6 40 12
10 10 17 10 33 -1 15 -9 24 -10 32 -2 8 8 6 11 -6 11 -9 0 -17 5 -17 11 0 19
25 3 38 -25 10 -20 18 -25 30 -20 19 8 29 8 90 6 38 -2 42 -5 42 -27 0 -29 8
-32 26 -7 10 14 15 15 25 5 15 -15 46 -17 51 -4 2 4 20 11 41 15 35 7 38 5 33
-12 -9 -28 17 -47 44 -32 21 11 21 12 3 25 -14 11 -15 16 -6 26 9 9 18 5 38
-20 29 -33 52 -40 57 -16 2 12 7 13 28 2 26 -13 28 -25 16 -64 -6 -20 -4 -23
18 -23 14 0 26 -4 26 -9 0 -20 33 -41 65 -41 39 0 53 -14 28 -28 -13 -8 -17
-23 -16 -60 1 -66 12 -83 30 -48 7 14 18 26 22 26 5 0 12 11 15 25 6 22 9 24
27 12 17 -10 22 -9 30 6 14 24 24 21 38 -10 11 -24 9 -29 -23 -62 -25 -25 -36
-31 -36 -20 0 9 -6 22 -14 28 -11 9 -15 7 -20 -11 -3 -13 -6 -33 -6 -44 0 -12
-7 -24 -15 -28 -8 -3 -15 -15 -15 -26 0 -18 6 -20 54 -20 48 0 55 2 58 22 4
31 26 34 34 4 l6 -26 314 0 314 0 0 55 c0 42 -3 55 -15 55 -8 0 -15 -7 -15
-15 0 -12 -28 -35 -44 -35 -10 0 17 65 31 73 7 4 13 14 13 20 0 7 17 30 38 51
l37 39 3 -26 c2 -14 -2 -35 -8 -47 -13 -24 -12 -24 28 -5 23 12 32 24 37 54 3
22 13 47 20 58 8 10 11 30 8 46 -7 33 5 34 35 2 19 -19 22 -31 17 -58 -7 -38
10 -61 22 -30 4 10 17 34 29 55 13 20 26 59 30 87 7 57 22 65 52 26 11 -13 32
-29 48 -36 16 -6 39 -16 51 -21 15 -8 30 -6 52 5 29 15 32 14 42 -5 11 -20 11
-20 32 0 23 20 83 52 100 52 5 0 4 -7 -3 -15 -13 -16 -13 -16 40 -21 101 -9
105 -9 105 6 0 11 -10 14 -42 12 -24 -2 -43 1 -43 6 0 17 35 39 70 46 44 8 81
58 73 99 -4 19 -1 27 9 27 22 0 18 -108 -6 -143 -16 -24 -17 -30 -5 -38 20
-12 26 -11 33 6 6 16 30 11 59 -13 15 -14 19 -13 40 6 30 28 39 28 32 -1 -8
-30 8 -43 63 -52 l43 -7 -4 56 c-3 31 -10 63 -17 71 -11 13 -8 21 21 50 34 34
59 45 59 25 0 -6 -7 -13 -15 -16 -16 -6 -21 -44 -6 -44 5 0 14 7 21 15 7 8 21
15 32 15 12 0 23 11 29 30 7 19 18 30 30 30 16 0 18 -5 12 -48 l-6 -47 21 18
c24 22 83 28 89 10 3 -8 -5 -13 -21 -13 -31 0 -32 -7 -7 -38 11 -13 26 -20 34
-16 10 3 18 -2 21 -14 9 -28 39 -33 67 -11 24 18 24 18 2 12 -17 -4 -23 -1
-23 12 0 10 7 23 17 30 13 10 23 8 51 -11 l34 -24 47 27 c25 15 47 31 49 35 4
9 53 -1 67 -14 6 -5 2 -11 -10 -15 -11 -3 -37 -25 -59 -49 -35 -39 -36 -44
-17 -44 11 0 21 5 21 11 0 5 14 15 30 20 16 6 30 15 30 20 0 5 9 9 20 9 11 0
20 5 20 10 0 6 5 10 10 10 6 0 5 -8 -2 -20 -7 -10 -9 -22 -5 -26 11 -11 37 17
37 41 0 12 5 37 11 55 l12 33 17 -23 c15 -20 20 -21 54 -12 45 13 126 59 126
72 0 15 38 12 43 -2 3 -10 7 -10 18 -2 21 17 59 27 59 16 0 -25 -55 -92 -75
-92 -12 0 -32 -12 -46 -26 -21 -23 -22 -27 -8 -37 8 -7 18 -20 22 -29 3 -10
14 -18 24 -18 23 0 82 41 89 63 3 9 12 17 20 17 11 0 14 15 14 64 0 55 -3 64
-20 69 -11 3 -20 12 -20 21 0 9 8 16 20 16 20 0 20 7 20 650 l0 650 -25 0
c-14 0 -25 -4 -25 -9 0 -15 -81 -30 -160 -31 -41 0 -88 -1 -105 -1 -52 -1
-238 11 -300 18 -56 8 -60 10 -63 36 -4 33 -26 45 -47 27 -24 -20 -29 -6 -27
83 2 89 -7 148 -24 154 -6 2 -19 -15 -29 -37 -16 -36 -40 -60 -59 -60 -3 0 -6
14 -6 31 0 69 -33 241 -51 262 -27 33 -40 11 -44 -77 -2 -42 -7 -81 -10 -86
-12 -19 -55 -10 -109 25 -30 19 -60 35 -67 35 -13 0 -157 145 -296 298 -265
293 -514 663 -513 762 0 34 15 42 46 24 28 -16 32 -16 57 1 15 9 27 26 27 37
0 19 30 82 52 108 7 8 30 21 51 28 34 12 41 12 57 -3 29 -26 60 -11 60 28 0
39 30 102 48 102 7 0 25 -19 40 -41 46 -70 138 -187 172 -219 17 -16 40 -46
51 -67 21 -42 58 -69 112 -85 43 -13 67 -8 67 14 0 46 -46 192 -75 237 -18 28
-47 86 -65 129 -36 88 -42 155 -16 202 9 17 16 46 16 65 1 29 2 32 11 17 16
-27 49 -153 49 -185 0 -17 9 -37 21 -48 12 -10 25 -30 30 -42 5 -13 18 -26 28
-29 11 -3 21 -14 24 -24 3 -11 23 -27 45 -37 42 -17 72 -58 72 -97 0 -34 10
-55 26 -55 11 0 14 22 14 104 0 104 -8 129 -34 107 -9 -7 -16 -7 -24 1 -17 17
-15 39 6 54 16 12 16 13 -4 14 -11 0 -28 8 -36 18 -21 22 -78 136 -78 153 0 8
-11 46 -25 84 -27 76 -32 158 -13 200 11 25 41 34 53 15 3 -5 13 -10 21 -10
11 0 14 17 14 78 0 114 21 282 36 282 19 0 66 -99 60 -125 -4 -14 0 -28 9 -35
8 -7 15 -22 15 -34 1 -27 26 -61 35 -46 10 16 -4 179 -26 310 -30 173 -46 421
-31 468 15 44 84 195 93 202 18 14 57 120 45 120 -3 0 -18 -28 -34 -62 -16
-35 -39 -71 -50 -81 -20 -18 -21 -18 -37 12 -15 29 -14 33 7 73 25 50 38 214
20 251 -22 44 -42 136 -48 219 -6 81 -6 87 15 100 12 7 26 30 32 51 13 48 46
65 70 34 9 -11 23 -18 31 -14 10 3 25 -10 44 -40 l29 -46 7 44 c13 72 31 83
145 81 60 -1 93 2 84 7 -20 13 -6 41 21 42 148 6 178 4 194 -15 15 -18 44 -19
104 -5 11 3 14 -3 12 -23 -2 -25 0 -28 28 -28 17 0 39 6 50 12 16 10 25 9 49
-5 16 -9 34 -17 40 -17 7 0 11 42 11 130 l0 130 -97 2 c-54 1 -147 3 -208 3
-138 1 -145 2 -145 19 0 11 -30 13 -162 10 -90 -2 -182 -6 -205 -9 -32 -5 -49
-2 -68 12 -13 10 -25 22 -25 26 0 4 21 17 46 29 44 19 46 21 41 54 -3 19 -16
49 -29 67 -13 17 -24 45 -24 60 -1 15 -9 36 -18 46 -9 10 -16 23 -16 29 0 6
-6 15 -13 19 -30 18 -97 186 -97 241 0 20 7 46 15 56 15 20 15 20 35 0 44 -44
49 -46 72 -30 19 13 24 14 37 2 23 -21 149 -86 166 -86 9 0 12 6 8 16 -4 12
-1 15 12 12 11 -2 22 -16 27 -36 10 -38 30 -41 48 -7 16 31 15 32 -75 80 -70
38 -82 41 -142 44 -18 0 -33 5 -33 10 0 12 -101 111 -113 111 -4 0 -6 -4 -3
-9 4 -5 1 -22 -5 -38 l-12 -28 -9 34 c-5 18 -18 46 -29 60 -12 16 -24 56 -30
95 -5 37 -16 77 -24 89 -8 12 -15 31 -15 43 0 13 -12 36 -26 53 -21 26 -25 37
-19 69 4 25 1 47 -9 67 -18 34 -21 77 -6 103 5 9 16 33 23 53 13 32 20 37 90
57 69 20 117 51 117 74 0 12 -13 10 -53 -7 -40 -17 -92 -5 -114 25 -8 11 -21
16 -37 13 -23 -5 -29 3 -73 96 -42 89 -51 101 -70 98 -35 -6 -47 9 -110 132
-32 63 -63 123 -69 135 -18 33 -27 86 -15 86 6 0 11 -10 11 -21 0 -18 6 -15
38 22 l39 43 40 -12 c22 -7 56 -12 74 -12 19 0 44 -6 55 -14 11 -8 31 -16 44
-18 19 -2 26 -10 28 -33 3 -27 13 -35 103 -78 64 -31 106 -46 119 -42 17 5 21
0 26 -34 5 -29 11 -41 23 -41 21 0 97 -36 106 -50 3 -5 22 -10 41 -10 19 0 51
-10 72 -23 47 -29 138 -57 186 -57 23 0 68 15 118 40 94 46 216 80 288 80 l50
0 0 420 0 421 -78 -2 c-45 -1 -88 4 -101 10 -14 8 -38 10 -63 6 -37 -7 -40 -6
-34 13 10 31 -18 40 -114 36 -66 -3 -81 -1 -66 8 11 6 63 12 115 13 53 2 109
6 124 10 19 5 33 3 45 -7 13 -11 36 -14 95 -10 l77 4 0 1524 0 1524 -1610 0
c-1587 0 -1610 0 -1610 -19 0 -11 -5 -23 -10 -26 -6 -4 -10 5 -10 19 0 25 -2
26 -59 26 -43 0 -60 -4 -65 -15 -3 -8 -12 -15 -21 -15 -8 0 -15 7 -15 15 0 12
-14 15 -66 15 -57 0 -65 -2 -62 -17 2 -12 14 -19 35 -21 39 -4 63 -34 63 -78
0 -27 -25 -64 -43 -64 -4 0 -7 18 -7 41 0 56 -15 82 -43 73 -29 -10 -77 -6
-93 6 -6 6 -19 8 -28 4 -17 -7 -22 11 -6 21 22 14 10 35 -20 35 -20 0 -30 -5
-30 -15 0 -8 -9 -15 -20 -15 -11 0 -20 7 -20 15 0 13 -39 15 -295 15 -288 0
-295 0 -295 -20 0 -11 -7 -20 -15 -20 -8 0 -15 9 -15 20 0 20 -7 20 -999 20
l-1000 0 -3 -32 c-2 -21 -8 -33 -18 -33 -10 0 -16 12 -18 33 l-3 32 -75 0 -74
0 0 -40 c0 -29 -4 -40 -15 -40 -11 0 -15 11 -15 40 l0 40 -79 0 c-67 0 -80 -3
-84 -17 -4 -17 -5 -17 -6 0 -1 13 -10 17 -46 17 -45 0 -58 -13 -34 -37 6 -6 9
-26 7 -44 -2 -26 -8 -34 -23 -35 -39 -2 -40 -5 -5 -21 19 -10 38 -22 42 -27
10 -15 -8 -43 -32 -49 -18 -5 -25 2 -40 39 -11 24 -26 47 -35 50 -12 5 -13 10
-4 20 18 22 1 34 -29 18 -15 -7 -42 -14 -61 -14 -30 0 -33 2 -26 23 4 12 9 34
12 50 5 25 3 27 -27 27 -31 0 -32 -2 -27 -30 6 -27 5 -29 -12 -18 -15 9 -23 9
-35 -1 -14 -12 -16 -10 -16 18 l0 31 -866 0 -865 0 3 -27 c2 -16 -1 -28 -7
-28 -5 0 -9 12 -7 28 3 27 3 27 -57 27 l-61 0 0 -1790z m2240 1726 c0 -27 -15
-42 -25 -26 -8 13 3 50 16 50 5 0 9 -11 9 -24z m2239 -14 c-10 -30 -29 -44
-29 -22 0 13 31 62 36 57 2 -2 -1 -18 -7 -35z m736 23 c13 0 21 -8 23 -24 6
-43 -7 -67 -45 -85 -42 -18 -73 -63 -73 -103 0 -22 -4 -25 -25 -21 -21 4 -24
2 -20 -13 8 -24 -21 -79 -41 -79 -13 0 -15 7 -10 33 4 26 1 35 -19 50 -24 18
-25 18 -42 -20 l-17 -38 -4 38 c-4 45 24 96 71 128 44 30 57 48 57 80 0 29 23
55 40 44 16 -10 12 -52 -6 -59 -11 -4 -14 -17 -12 -48 4 -56 22 -55 26 1 2 33
10 49 28 64 15 11 23 26 20 34 -8 20 3 35 17 26 7 -5 21 -8 32 -8z m-2875 -77
c0 -9 -11 -25 -25 -34 -14 -9 -26 -24 -26 -33 -2 -27 -17 42 -18 85 0 22 2 44
6 47 10 11 63 -44 63 -65z m1656 -5 c-11 -11 -19 6 -11 24 8 17 8 17 12 0 3
-10 2 -21 -1 -24z m1345 20 c8 -9 38 -34 66 -55 55 -40 63 -57 39 -77 -15 -13
-7 -64 14 -85 14 -14 12 -48 -5 -90 -16 -38 -35 -40 -35 -5 0 32 -29 79 -49
79 -17 0 -39 -19 -54 -47 -5 -7 -1 -9 11 -6 27 7 69 -90 53 -123 -12 -26 -33
-31 -49 -11 -6 7 -12 36 -14 65 -2 28 -6 52 -9 52 -4 0 -18 -9 -32 -20 -14
-11 -28 -20 -31 -20 -12 0 -5 48 8 59 8 7 17 25 21 40 3 16 17 39 31 51 24 24
32 54 15 64 -5 4 -3 26 5 53 8 26 12 53 10 60 -7 18 -36 4 -36 -17 0 -10 -7
-24 -16 -31 -12 -10 -15 -24 -11 -54 4 -23 4 -51 0 -63 -7 -29 -43 -30 -43 -1
0 20 0 20 -31 -1 -29 -21 -30 -24 -24 -79 3 -31 11 -74 16 -97 8 -32 7 -48 -5
-78 -17 -42 -31 -40 -41 4 -4 16 -11 32 -16 35 -5 4 -9 24 -9 45 0 21 -8 52
-17 68 -16 29 -16 32 2 67 11 20 31 43 45 50 14 7 34 30 44 50 11 20 33 43 48
51 18 9 28 22 28 37 0 44 44 63 71 30z m-3431 -34 c0 -30 -22 -59 -45 -59 -29
0 -29 0 -14 51 11 35 13 37 35 27 13 -6 24 -15 24 -19z m-90 9 c0 -7 3 -23 6
-35 5 -19 2 -23 -15 -23 -21 0 -27 21 -15 54 7 19 24 21 24 4z m3822 -31 c9
-23 20 -57 23 -75 7 -33 6 -33 -17 -21 -12 6 -26 16 -29 22 -4 5 -10 0 -14
-12 -3 -11 -11 -21 -16 -21 -15 0 -10 40 7 47 11 4 15 18 14 47 -3 73 7 77 32
13z m-1272 -37 c0 -38 -23 -75 -40 -65 -10 6 -4 52 11 93 13 33 29 17 29 -28z
m-2347 -11 c26 -28 34 -31 72 -26 38 4 44 2 49 -17 8 -30 -10 -43 -32 -23 -12
11 -40 17 -90 19 -61 2 -72 4 -66 18 4 8 9 25 11 38 7 30 20 28 56 -9z m2137
11 c0 -11 -4 -20 -10 -20 -5 0 -10 9 -10 20 0 11 5 20 10 20 6 0 10 -9 10 -20z
m50 -15 c0 -8 -4 -15 -10 -15 -5 0 -10 7 -10 15 0 8 5 15 10 15 6 0 10 -7 10
-15z m-2450 -80 c0 -26 -21 -42 -39 -30 -7 4 -5 15 5 31 21 31 34 31 34 -1z
m195 -35 c4 0 13 8 20 17 11 15 14 14 29 -15 26 -51 22 -55 -39 -49 l-55 6 -1
-32 c-1 -42 -15 -78 -22 -57 -15 43 -16 81 -2 86 8 3 19 22 26 42 10 31 13 34
24 19 7 -9 16 -17 20 -17z m-155 -69 c-6 -12 -17 -21 -25 -21 -21 0 -19 10 7
37 25 26 36 16 18 -16z m3200 -6 c0 -9 -10 -34 -21 -57 -20 -38 -23 -40 -35
-24 -15 21 -9 42 19 74 24 26 37 28 37 7z m-772 -87 c-4 -29 -38 -38 -38 -10
0 22 8 32 27 32 9 0 13 -8 11 -22z m869 0 c27 -25 30 -60 7 -82 -22 -22 -28
-20 -41 14 -6 17 -18 30 -27 30 -20 0 -20 10 0 38 19 28 32 28 61 0z m-847
-48 c-6 -12 -14 -20 -17 -17 -2 3 1 14 8 26 17 26 24 19 9 -9z m750 -37 c-1
-10 -50 -70 -50 -62 0 14 32 69 41 69 5 0 9 -3 9 -7z m-1570 -110 c0 -20 -3
-24 -11 -16 -7 7 -9 19 -6 27 10 24 17 19 17 -11z m342 -215 c-9 -9 -12 -7
-12 12 0 19 3 21 12 12 9 -9 9 -15 0 -24z m-362 8 c0 -8 -4 -18 -10 -21 -5 -3
-10 3 -10 14 0 12 5 21 10 21 6 0 10 -6 10 -14z m-2970 -61 c0 -8 -4 -15 -10
-15 -5 0 -10 7 -10 15 0 8 5 15 10 15 6 0 10 -7 10 -15z m3276 -61 c-5 -13
-10 -14 -18 -6 -6 6 -8 18 -4 28 5 13 10 14 18 6 6 -6 8 -18 4 -28z m2243
-1328 c6 -4 40 -2 76 5 57 10 68 9 84 -5 10 -9 29 -16 43 -16 32 0 77 -35 63
-48 -5 -5 -23 -12 -38 -16 -24 -6 -30 -3 -34 14 -5 19 -12 21 -52 19 -25 -1
-59 4 -74 11 -26 13 -30 12 -38 -3 -13 -23 -39 -21 -88 6 -33 19 -52 23 -91
19 -52 -5 -65 3 -29 16 24 9 162 7 178 -2z m410 -76 c29 -1 53 -27 46 -49 -7
-22 -35 -29 -35 -10 0 8 -14 10 -39 6 -48 -6 -76 16 -59 47 8 14 17 17 40 12
17 -3 38 -6 47 -6z m-135 -70 c8 0 21 -8 28 -19 7 -10 20 -20 29 -22 13 -3 15
-9 8 -28 -9 -23 -10 -23 -37 -5 -43 28 -92 77 -92 92 0 12 5 11 25 -2 13 -9
31 -16 39 -16z m911 -92 c-3 -13 1 -30 8 -38 16 -20 62 -40 91 -40 13 0 31 -9
41 -20 10 -11 31 -20 47 -20 15 0 28 -4 28 -9 0 -12 -66 -19 -85 -9 -10 6 -18
2 -27 -12 -7 -11 -21 -20 -32 -20 -25 0 -56 28 -56 51 0 23 -35 43 -62 36 -11
-3 -31 -2 -43 3 -13 5 -63 11 -111 14 -48 3 -89 7 -90 9 -2 2 2 11 9 20 18 26
132 55 215 56 70 1 72 0 67 -21z m-1325 -28 l25 -20 -30 0 c-30 0 -55 15 -55
32 0 15 35 8 60 -12z m-4880 -12 c0 -16 -3 -19 -11 -11 -6 6 -8 16 -5 22 11
17 16 13 16 -11z m5200 -23 c0 -9 -9 -15 -21 -15 -18 0 -19 2 -9 15 7 8 16 15
21 15 5 0 9 -7 9 -15z m-1130 -66 c0 -5 -6 -9 -13 -9 -8 0 -43 -31 -80 -68
-50 -53 -67 -77 -72 -108 -4 -21 -12 -53 -18 -71 -7 -22 -7 -39 0 -55 10 -22
11 -21 18 14 4 21 13 42 21 49 8 6 14 20 14 30 0 16 57 69 74 69 5 0 5 -22 1
-50 -7 -47 3 -67 20 -39 5 7 13 5 25 -6 16 -15 18 -13 24 25 9 57 36 122 49
117 7 -2 14 -14 17 -27 4 -15 15 -27 30 -30 15 -4 29 -17 34 -33 8 -22 5 -33
-14 -59 -20 -27 -24 -45 -26 -124 -2 -102 -8 -121 -29 -104 -8 7 -18 9 -24 6
-10 -7 -21 16 -21 44 0 10 -5 31 -10 46 -16 41 -29 18 -34 -60 -3 -38 -10 -74
-15 -79 -15 -15 -34 41 -26 79 8 48 -20 54 -46 9 -11 -18 -26 -32 -32 -29 -21
8 -46 -51 -40 -95 4 -26 2 -41 -5 -41 -6 0 -12 10 -14 23 -4 31 -22 28 -26 -5
-2 -19 -9 -28 -22 -28 -16 0 -17 5 -10 37 5 22 5 44 -1 56 -10 18 -11 18 -32
0 -12 -10 -27 -25 -34 -33 -16 -21 -30 -3 -15 20 7 11 12 27 12 35 0 8 5 15
11 15 24 0 55 47 55 83 0 21 -3 37 -7 37 -16 0 -59 -63 -59 -86 0 -15 -17 -45
-39 -72 -22 -26 -49 -66 -61 -88 -19 -38 -24 -42 -61 -42 -40 -1 -41 0 -34 26
15 62 17 82 7 82 -5 0 -13 -10 -17 -22 -4 -16 -8 -19 -12 -10 -5 13 -1 24 34
98 20 43 170 195 216 219 20 11 37 25 37 31 0 6 7 17 15 24 22 18 19 30 -7 30
-21 1 -68 31 -68 43 0 3 12 12 26 22 21 14 28 15 35 4 6 -11 11 -11 26 1 10 9
39 26 65 40 29 15 48 32 50 45 2 15 13 21 43 25 44 6 65 3 65 -11z m267 -35
c10 -14 28 -38 41 -54 12 -15 22 -35 22 -44 0 -9 11 -21 24 -26 36 -13 52 -48
33 -67 -17 -17 -7 -63 21 -95 8 -10 16 -31 17 -48 l3 -30 -19 24 c-11 13 -19
31 -19 40 0 8 -9 20 -20 26 -11 6 -20 17 -20 24 0 7 -9 21 -20 31 -11 10 -20
24 -20 31 0 7 -17 29 -37 49 -34 33 -37 42 -41 101 -5 70 5 81 35 38z m151
-60 c7 -8 19 -14 27 -14 16 0 42 -39 51 -76 4 -16 20 -42 35 -58 23 -22 27
-32 19 -47 -6 -11 -17 -16 -26 -12 -16 6 -47 62 -58 105 -3 15 -14 29 -24 32
-27 9 -82 63 -82 81 0 12 5 15 22 9 12 -3 28 -13 36 -20z m770 -39 c23 -26 15
-32 -19 -15 -19 11 -27 40 -11 40 5 0 18 -11 30 -25z m-997 -32 c-9 -17 -10
-17 -16 0 -4 9 -4 25 0 35 6 16 7 16 16 0 7 -12 7 -24 0 -35z m-1784 -43 c30
-5 81 -6 124 -1 43 5 81 4 92 -1 11 -6 29 -5 50 3 26 9 80 9 229 1 111 -7 208
-8 225 -3 20 6 37 4 54 -5 16 -9 62 -13 141 -14 64 0 119 -4 123 -9 8 -14 -67
-72 -85 -66 -8 2 -44 5 -80 5 -106 0 -109 0 -260 5 -80 3 -185 10 -234 15 -75
8 -95 7 -123 -6 -18 -9 -38 -14 -45 -12 -7 3 -83 2 -168 -3 -122 -6 -158 -4
-170 6 -12 10 -22 11 -50 1 -35 -11 -55 -46 -26 -46 22 0 30 -19 11 -26 -9 -4
-23 0 -33 8 -9 8 -30 19 -45 26 -26 11 -30 9 -68 -31 -43 -45 -82 -111 -72
-121 13 -12 65 -5 103 14 40 20 70 26 70 13 -1 -19 -21 -34 -95 -67 -44 -20
-93 -43 -108 -51 -31 -16 -67 -20 -67 -7 0 4 14 22 30 40 17 18 30 41 30 51 0
47 33 121 70 160 22 22 40 45 40 50 0 16 44 38 90 44 25 3 59 13 75 21 34 18
99 20 172 6z m3853 -14 c0 -7 11 -29 24 -49 21 -31 23 -41 15 -69 -11 -40 5
-98 28 -98 20 0 73 38 73 53 0 6 -9 21 -21 33 l-20 21 40 20 c35 18 44 19 66
7 40 -20 202 -20 243 1 23 12 44 15 68 11 21 -4 34 -3 34 4 0 16 26 12 70 -11
56 -29 54 -54 -6 -63 -27 -3 -54 -1 -67 6 -31 16 -365 15 -380 -2 -9 -10 -9
-14 1 -17 21 -8 13 -34 -27 -82 -32 -38 -38 -52 -34 -78 6 -39 -7 -43 -37 -11
-14 15 -20 35 -20 65 0 40 -2 43 -26 43 -37 0 -84 31 -91 60 -3 14 -12 35 -20
47 -12 19 -12 25 1 51 14 28 62 71 79 72 4 0 7 -6 7 -14z m1158 -106 c31 -23
41 -39 25 -41 -62 -5 -115 -2 -147 8 -21 7 -51 13 -67 13 -39 0 -36 15 5 32
57 22 145 17 184 -12z m-3531 -212 c-2 -13 -4 -3 -4 22 0 25 2 35 4 23 2 -13
2 -33 0 -45z m1133 -258 c91 -91 197 -205 235 -254 39 -48 103 -127 143 -174
41 -48 80 -100 87 -117 22 -48 51 -75 82 -76 45 -2 78 -14 78 -29 0 -12 -11
-14 -45 -11 -25 1 -50 7 -55 11 -10 8 -30 5 -188 -31 -58 -13 -59 -13 -77 11
-10 14 -21 39 -25 56 -4 26 -13 35 -48 49 -72 28 -148 115 -248 280 -86 141
-111 194 -209 436 -21 50 -40 126 -34 132 7 6 122 -102 304 -283z m-927 267
c3 -8 1 -20 -4 -28 -11 -19 -34 3 -26 25 8 20 23 21 30 3z m-881 -122 c4 -15
12 -31 18 -35 13 -8 3 -80 -11 -80 -5 0 -9 16 -9 35 0 45 -17 45 -26 0 -5 -26
-2 -41 10 -54 26 -29 19 -121 -9 -121 -16 0 -26 -52 -25 -128 1 -83 -15 -213
-28 -239 -14 -26 -15 -86 -3 -130 10 -34 -3 -103 -18 -103 -5 0 -25 -11 -45
-25 -50 -34 -86 -27 -179 35 -40 26 -93 61 -120 78 -26 18 -87 51 -135 74 -84
41 -91 43 -177 42 -97 -1 -203 -22 -302 -60 -34 -13 -69 -24 -78 -24 -16 0
-293 -112 -360 -146 -162 -80 -214 -109 -235 -129 -14 -12 -53 -37 -88 -54
-34 -17 -71 -40 -82 -51 -11 -11 -24 -20 -29 -20 -6 0 -36 -22 -68 -48 -32
-26 -64 -51 -70 -56 -26 -15 -12 15 26 55 39 42 91 134 91 163 0 8 -6 16 -12
18 -7 3 9 26 38 55 28 28 82 100 120 159 96 153 138 206 251 314 130 124 159
150 172 150 6 0 11 5 11 10 0 6 12 15 26 20 28 11 24 30 -7 30 -27 0 -24 15
12 50 22 20 33 41 34 63 3 55 27 151 41 167 12 12 14 11 14 -10 0 -14 -7 -50
-16 -80 -29 -100 -29 -100 -4 -100 12 0 33 9 47 20 14 11 32 20 39 20 8 0 14
-9 14 -20 0 -28 26 -25 69 8 41 32 188 97 241 107 55 10 176 -39 407 -165 l42
-23 49 31 c27 18 63 49 80 71 22 27 43 41 74 49 24 6 57 21 75 34 17 13 41 30
53 38 12 8 29 20 38 27 23 17 35 11 44 -22z m58 18 c0 -5 -5 -15 -10 -23 -8
-12 -10 -11 -10 8 0 12 5 22 10 22 6 0 10 -3 10 -7z m200 -21 c0 -13 -12 -22
-22 -16 -10 6 -1 24 13 24 5 0 9 -4 9 -8z m56 -39 c-11 -11 -17 4 -9 23 7 18
8 18 11 1 2 -10 1 -21 -2 -24z m214 11 c0 -14 -4 -23 -9 -20 -5 3 -7 15 -4 26
7 28 13 25 13 -6z m56 -71 c-3 -8 -10 -12 -15 -9 -5 4 -4 24 3 48 l11 43 3
-33 c2 -19 1 -41 -2 -49z m3441 66 c8 -8 20 -9 41 -1 15 5 35 6 43 3 8 -4 46
-5 84 -2 102 9 190 0 190 -19 0 -13 -33 -15 -237 -16 -131 0 -238 3 -238 7 0
30 93 52 117 28z m-7812 -208 c15 -6 8 -9 -28 -14 -52 -7 -110 1 -101 14 6 11
101 11 129 0z m485 -121 c0 -5 -7 -10 -15 -10 -8 0 -15 5 -15 10 0 6 7 10 15
10 8 0 15 -4 15 -10z m4507 -169 c7 -20 20 -31 42 -36 23 -5 35 -16 46 -41 19
-45 39 -45 31 0 -7 36 2 50 27 40 21 -8 29 -66 11 -80 -8 -6 -14 -23 -14 -37
0 -35 -42 -83 -61 -71 -8 5 -27 14 -43 19 -23 8 -32 20 -44 60 -17 60 -27 175
-15 175 5 0 14 -13 20 -29z m-4379 -224 c19 -9 49 -17 67 -17 35 0 55 -14 31
-23 -28 -11 -258 6 -263 19 -9 24 16 53 50 56 31 3 49 -2 115 -35z m-538 -27
c0 -5 -9 -10 -20 -10 -11 0 -20 5 -20 10 0 6 9 10 20 10 11 0 20 -4 20 -10z
m270 0 c0 -5 -24 -10 -52 -10 -38 0 -49 3 -38 10 20 13 90 13 90 0z m453 1
c17 -6 17 -8 -3 -26 -23 -21 -47 -8 -37 19 7 17 13 18 40 7z m381 -57 c21 -8
20 -31 -1 -42 -35 -18 -58 9 -31 36 14 14 12 14 32 6z m-1368 -50 c-6 -21 -3
-24 19 -24 42 0 29 -26 -24 -49 -110 -47 -183 -3 -82 49 22 11 45 29 51 40 15
28 43 15 36 -16z m554 1 c0 -16 -27 -32 -37 -22 -3 4 -3 13 0 22 8 20 37 20
37 0z m258 -40 c10 -45 -67 -61 -124 -26 -17 10 -45 22 -62 26 -37 8 -42 23
-9 29 107 22 132 22 162 5 17 -10 31 -25 33 -34z m152 -14 c0 -5 -7 -12 -16
-15 -22 -9 -24 -8 -24 9 0 8 9 15 20 15 11 0 20 -4 20 -9z m5218 -42 c-22 -12
-24 -39 -4 -39 8 0 23 11 34 25 22 28 32 32 32 11 0 -8 -7 -16 -15 -20 -8 -3
-15 -12 -15 -19 0 -8 -14 -29 -32 -46 -24 -23 -39 -30 -62 -27 -40 4 -43 18
-9 58 16 18 37 46 47 62 14 21 21 25 29 16 9 -8 8 -14 -5 -21z m-2590 -121 c7
-7 12 -19 12 -28 0 -9 8 -32 18 -52 11 -20 24 -58 31 -85 28 -110 54 -200 67
-228 7 -16 16 -43 20 -60 4 -16 14 -39 24 -50 9 -11 30 -42 45 -69 28 -48 28
-48 26 -222 -2 -166 -1 -175 23 -221 13 -26 30 -73 36 -103 7 -30 18 -71 26
-91 12 -34 11 -38 -11 -59 -19 -18 -42 -24 -112 -31 -55 -6 -98 -6 -118 1 -16
5 -61 14 -100 19 -38 5 -107 17 -152 27 -77 17 -84 17 -118 1 -44 -21 -76 -21
-142 -2 -43 13 -55 23 -86 69 -30 45 -50 62 -136 110 -56 31 -104 56 -107 56
-3 0 -29 11 -57 24 -80 36 -97 40 -97 22 0 -8 7 -21 15 -28 9 -7 24 -20 33
-29 9 -9 27 -20 40 -23 12 -4 22 -12 22 -17 0 -12 -43 -1 -48 12 -2 5 -14 9
-27 9 -22 0 -160 58 -311 131 -44 21 -116 50 -160 65 -43 15 -97 39 -118 55
-22 16 -46 29 -53 29 -8 0 -13 13 -13 34 0 42 48 102 128 162 80 59 121 102
142 150 29 67 78 111 130 117 141 18 181 27 228 51 29 14 52 30 52 35 0 5 13
14 29 21 35 14 338 4 358 -12 28 -23 222 21 285 65 16 10 31 30 34 45 12 56
16 63 52 87 40 27 71 32 90 13z m3123 -128 c30 -64 82 -310 98 -465 27 -248
-68 -602 -236 -881 -133 -220 -363 -430 -522 -478 -45 -13 -56 -13 -118 3 -95
25 -151 56 -200 110 -30 33 -40 52 -36 68 3 13 -3 29 -16 42 -25 25 -27 54 -6
71 8 6 41 14 74 17 l60 6 -33 41 c-44 55 -59 83 -46 91 15 9 12 25 -5 25 -9 0
-32 -10 -53 -23 -60 -37 -101 -46 -218 -49 l-111 -3 -47 39 c-26 21 -46 42
-44 48 4 11 50 37 131 72 32 14 57 31 55 37 -2 6 -28 19 -57 30 -45 15 -61 17
-105 8 -28 -6 -65 -20 -82 -30 -43 -26 -72 -24 -101 7 -18 20 -30 24 -50 19
-21 -5 -33 0 -59 26 -18 17 -41 36 -52 43 -11 6 -47 27 -80 46 -58 34 -92 71
-92 103 0 20 48 77 65 77 7 0 24 9 38 20 14 11 39 20 55 20 26 0 34 -7 60 -53
17 -30 35 -80 41 -112 6 -31 20 -73 32 -92 21 -34 22 -34 73 -28 74 11 122 30
170 70 43 35 70 43 81 25 21 -33 78 16 73 63 -3 29 -1 32 27 33 37 1 128 40
150 64 16 18 15 20 -21 35 -84 36 -133 27 -189 -35 -34 -37 -97 -24 -261 57
-53 25 -57 42 -45 212 13 183 28 220 97 247 66 25 104 8 264 -121 36 -29 92
-66 126 -83 57 -29 108 -75 145 -132 14 -22 20 -24 44 -15 15 6 33 19 39 30 6
11 20 34 32 50 12 17 24 40 28 53 4 12 16 27 27 32 27 15 23 30 -8 30 -27 1
-27 1 10 20 21 10 52 22 70 26 17 3 41 13 52 20 11 8 28 14 38 14 21 0 143 61
202 101 22 14 66 43 97 63 114 74 198 182 218 281 6 33 18 70 26 83 14 22 15
22 40 5 13 -10 38 -47 55 -83z m-5732 -16 c-6 -8 -17 -14 -25 -14 -20 0 -27
19 -14 35 9 11 17 12 32 4 15 -8 17 -13 7 -25z m-69 8 c3 -3 -1 -7 -9 -10 -7
-2 -22 -13 -33 -24 -16 -16 -27 -19 -57 -13 -20 4 -50 7 -68 6 -18 0 -35 4
-38 9 -8 14 41 31 68 25 12 -3 31 1 42 9 18 13 81 12 95 -2z m780 -22 c0 -5
-10 -10 -22 -10 -19 0 -20 2 -8 10 19 13 30 13 30 0z m-492 -29 c23 -14 10
-46 -19 -47 -14 -1 -37 -4 -52 -8 -15 -3 -29 -1 -33 5 -8 13 31 46 61 52 11 2
22 5 25 5 3 1 11 -2 18 -7z m-157 -22 c25 -13 15 -29 -19 -29 -34 0 -57 14
-48 29 9 14 41 14 67 0z m-941 -239 c-12 -23 -30 -27 -30 -7 0 17 10 27 27 27
11 0 11 -5 3 -20z m530 -19 c0 -16 -42 -41 -68 -41 -32 0 -26 32 8 41 37 10
60 10 60 0z m1050 -13 c0 -7 -11 -35 -25 -62 -14 -27 -25 -55 -25 -62 0 -26
-43 -44 -107 -44 -51 0 -64 3 -73 19 -18 35 2 64 85 118 61 40 145 58 145 31z
m-1452 -35 c-2 -14 -15 -19 -51 -21 -29 -2 -47 1 -47 8 0 14 37 29 73 29 22 1
28 -3 25 -16z m1117 -13 c-3 -5 -12 -10 -20 -10 -8 0 -17 5 -20 10 -4 6 5 10
20 10 15 0 24 -4 20 -10z m-245 -44 c0 -19 -17 -29 -37 -22 -12 5 -13 9 -3 21
16 19 40 19 40 1z m6744 -43 c3 -10 9 -24 12 -30 4 -8 -2 -13 -15 -13 -17 0
-21 6 -21 30 0 33 14 40 24 13z m-7239 -52 c-3 -6 -14 -11 -23 -11 -15 1 -15
2 2 15 21 16 32 13 21 -4z m579 -24 c17 -12 17 -14 -1 -36 -26 -32 -123 -44
-123 -16 0 47 83 82 124 52z m-206 -43 c13 -9 21 -18 19 -21 -9 -8 -117 -12
-121 -4 -3 4 2 18 11 30 17 25 47 23 91 -5z m-723 -34 c-3 -5 -15 -10 -26 -10
-10 0 -19 5 -19 10 0 6 12 10 26 10 14 0 23 -4 19 -10z m1165 -74 c0 -25 -4
-47 -9 -51 -6 -3 -13 -37 -17 -75 -6 -60 -11 -74 -34 -94 -26 -22 -34 -23
-132 -18 -56 2 -109 8 -117 12 -10 5 4 24 54 71 37 35 91 88 121 117 53 52 97
82 122 82 8 0 12 -16 12 -44z m-465 -216 c3 -5 -7 -15 -22 -21 -15 -6 -36 -15
-45 -20 -10 -5 -48 -9 -85 -10 -59 -1 -106 -6 -198 -21 -30 -5 -33 37 -3 54
35 20 342 36 353 18z m1079 -149 c20 -42 48 -90 64 -107 38 -44 132 -111 268
-191 64 -37 130 -76 147 -87 52 -31 165 -86 176 -86 17 0 41 -43 41 -72 0 -37
23 -36 52 3 12 16 45 45 73 64 57 38 146 122 189 178 24 32 34 38 60 35 59 -6
70 -94 53 -417 -2 -29 3 -38 26 -50 28 -15 30 -15 45 8 45 66 26 62 277 66
127 1 253 6 281 10 65 9 71 -3 37 -74 -31 -64 -108 -144 -188 -195 -33 -21
-73 -48 -90 -59 -16 -12 -38 -20 -49 -19 -11 0 -27 -5 -36 -12 -22 -19 -49
-26 -55 -16 -14 23 -25 7 -21 -27 3 -21 5 -41 5 -44 1 -3 10 -16 21 -29 19
-22 19 -22 -5 -58 -28 -42 -99 -92 -129 -92 -15 0 -17 3 -8 12 7 7 12 25 12
41 0 26 -3 28 -22 22 -48 -17 -165 -17 -212 -1 -26 9 -54 16 -63 16 -25 0 3
-27 35 -35 38 -8 74 -41 70 -62 -2 -11 -16 -20 -38 -24 -19 -4 -68 -14 -108
-22 -110 -22 -206 -3 -320 64 -48 28 -109 68 -136 88 -27 20 -69 48 -94 62
-50 30 -43 43 21 34 37 -5 80 7 67 18 -12 9 -108 40 -142 44 -35 5 -38 3 -38
-20 0 -14 7 -32 15 -41 8 -8 15 -25 15 -38 0 -29 53 -105 79 -113 10 -3 31
-23 45 -45 14 -22 38 -47 53 -56 81 -50 107 -72 120 -101 7 -18 19 -33 27 -33
8 0 21 -11 30 -25 16 -24 16 -24 -25 -37 -37 -10 -43 -10 -54 5 -9 13 -31 19
-86 21 -41 3 -87 9 -102 15 -16 6 -39 11 -51 11 -53 0 -166 124 -166 182 0 8
-16 47 -35 87 -26 54 -34 82 -30 102 8 35 -1 52 -62 115 -70 75 -103 115 -103
128 0 7 -5 17 -12 24 -18 18 -40 82 -45 131 -3 25 -14 57 -25 72 -11 15 -17
32 -13 39 4 6 0 19 -9 29 -14 16 -17 47 -18 200 -2 186 4 219 35 193 16 -14
15 -68 -2 -99 -15 -28 -14 -43 2 -43 7 0 21 -6 31 -13 16 -11 17 -17 7 -36
-10 -18 -9 -27 4 -47 32 -49 62 -14 33 39 -6 12 -10 45 -9 74 1 29 -4 63 -10
75 -18 32 -13 237 7 283 13 31 17 34 33 23 11 -6 35 -46 55 -87z m-444 -40 c0
-11 -4 -23 -10 -26 -6 -4 -10 5 -10 19 0 14 5 26 10 26 6 0 10 -9 10 -19z
m4373 -1420 c27 -55 56 -106 66 -115 9 -8 37 -20 62 -27 43 -12 54 -10 142 19
52 17 117 45 145 62 27 16 53 30 57 30 5 0 23 11 41 25 18 14 36 25 41 25 15
0 8 -183 -9 -221 -9 -20 -19 -47 -23 -60 -3 -13 -18 -48 -33 -78 -25 -49 -25
-54 -9 -66 19 -13 23 -70 7 -80 -6 -4 -16 8 -22 25 -9 27 -12 30 -20 16 -16
-28 -13 -78 5 -88 10 -5 17 -21 17 -38 0 -17 5 -30 10 -30 6 0 10 9 10 20 0
11 9 37 20 57 11 21 20 54 20 73 0 22 14 61 35 100 19 36 35 73 35 84 0 10 11
29 24 41 13 12 25 27 28 35 2 8 9 10 16 6 8 -5 12 -39 12 -98 0 -73 -4 -97
-20 -123 -46 -75 -63 -187 -35 -235 19 -32 19 -95 0 -195 -8 -44 -18 -130 -23
-192 -5 -61 -13 -116 -16 -122 -5 -8 -16 -6 -36 5 -35 22 -70 119 -71 202 0
31 -4 66 -8 77 -7 18 -10 16 -24 -18 -15 -36 -17 -37 -44 -25 -43 18 -53 28
-53 54 0 30 -36 126 -58 156 -27 35 -75 165 -69 182 9 23 55 38 97 31 45 -7
69 7 54 32 -7 12 -28 20 -63 23 -42 4 -60 12 -96 43 -26 23 -48 53 -55 75 -18
58 -33 83 -55 93 -46 21 -140 98 -157 129 -25 48 -25 190 1 190 3 0 28 -45 54
-99z m-509 -116 c30 -60 69 -145 86 -188 33 -84 33 -88 -17 -155 -13 -17 -22
-36 -19 -41 3 -5 27 2 53 15 l48 23 18 -20 c9 -12 17 -32 17 -44 0 -13 15 -46
34 -74 19 -28 54 -91 77 -141 24 -50 64 -132 89 -183 l45 -92 48 0 c27 -1 53
-7 62 -16 19 -19 9 -59 -15 -59 -25 0 -60 -47 -60 -79 0 -27 32 -71 50 -71 14
0 12 -27 -4 -63 -53 -117 -44 -136 121 -240 53 -34 93 -85 213 -270 291 -452
532 -797 658 -944 106 -122 153 -184 146 -194 -3 -5 -44 -9 -92 -10 -48 0
-119 -3 -158 -7 -89 -9 -317 1 -364 15 -19 6 -64 21 -100 32 -84 27 -263 68
-331 77 l-54 7 25 -20 c14 -11 53 -28 87 -39 58 -18 90 -44 78 -64 -8 -13
-308 -10 -390 4 -67 12 -73 15 -130 74 -46 48 -82 74 -155 109 -52 26 -97 48
-99 50 -10 6 13 55 54 116 25 37 45 69 45 72 0 2 14 24 30 48 17 25 30 50 30
56 0 6 4 11 9 11 11 0 43 61 36 68 -3 3 -27 1 -53 -5 -26 -7 -64 -14 -84 -18
-20 -3 -49 -12 -65 -20 -16 -9 -55 -14 -97 -14 -79 1 -152 -14 -210 -44 l-39
-21 -121 23 c-97 17 -132 29 -177 56 -31 19 -94 46 -140 61 -158 49 -144 36
-185 166 -14 45 -28 84 -29 86 -2 2 -27 -21 -57 -51 -38 -40 -63 -57 -90 -62
-34 -6 -42 -3 -89 36 -28 24 -60 63 -71 85 -17 37 -29 46 -99 78 -45 20 -87
36 -95 36 -8 0 -36 11 -62 24 -26 13 -63 27 -82 31 -19 4 -64 22 -100 39 -36
18 -77 36 -91 39 -17 4 -31 18 -39 38 -9 20 -26 37 -47 45 -38 16 -39 21 -17
52 13 18 19 21 30 11 15 -12 19 -10 81 45 18 16 33 34 33 39 0 21 -44 47 -82
47 -32 0 -40 4 -48 25 -7 18 -17 25 -37 25 -36 0 -47 8 -67 48 -10 19 -24 32
-35 32 -27 0 -71 56 -71 91 0 24 4 29 25 29 15 0 31 -9 41 -25 13 -20 25 -25
58 -25 38 0 45 -4 67 -37 18 -28 32 -39 54 -41 22 -2 39 -15 63 -47 l34 -44
64 6 c51 5 64 3 64 -8 0 -23 60 -56 134 -74 38 -9 81 -25 95 -35 123 -86 177
-107 326 -125 94 -11 123 -12 132 -2 17 17 33 134 43 317 5 97 16 187 30 240
12 48 25 146 30 225 5 77 13 164 19 194 6 29 11 55 11 57 0 2 6 4 14 4 9 0 15
-16 18 -45 7 -58 22 -75 66 -75 54 0 72 22 72 91 0 54 2 59 25 65 14 3 32 1
40 -6 11 -9 17 -6 30 19 24 47 39 39 30 -16 -4 -27 -11 -56 -17 -66 -5 -10 -8
-25 -6 -33 4 -20 73 73 92 123 15 41 46 170 46 192 0 13 19 57 64 148 21 43
50 59 87 48 12 -4 29 1 44 14 23 17 29 18 52 6 14 -8 30 -19 34 -27 15 -24 20
0 23 113 4 111 16 168 45 203 13 16 16 15 37 -11 13 -15 48 -77 78 -138z
m-1686 -398 c6 -7 14 -36 18 -65 6 -51 5 -55 -26 -87 -18 -18 -30 -38 -26 -43
3 -5 24 -10 47 -10 23 -1 43 -3 46 -5 6 -6 -18 -88 -30 -104 -5 -7 -17 -13
-26 -13 -10 0 -27 -13 -39 -30 l-23 -30 36 0 c32 0 35 -3 35 -27 0 -51 11 -73
34 -73 19 0 25 -8 34 -47 6 -30 7 -52 1 -57 -5 -6 -9 -20 -9 -33 0 -24 -14
-31 -25 -12 -5 7 -14 3 -26 -10 -22 -23 -78 -28 -97 -9 -7 7 -12 21 -12 33 0
12 -5 26 -11 32 -19 19 -5 45 41 78 57 40 62 61 18 79 -27 12 -37 12 -59 1
-14 -8 -31 -21 -38 -29 -18 -22 -38 -20 -52 5 -8 15 -8 24 0 32 15 15 14 27
-1 27 -22 -1 -58 -37 -58 -58 0 -11 -6 -25 -14 -31 -8 -7 -18 -27 -21 -44 -12
-58 -16 -67 -33 -67 -31 1 -53 26 -47 52 4 16 1 29 -9 37 -12 10 -13 18 -4 39
5 15 10 45 9 67 0 22 3 46 8 53 10 17 71 32 137 35 52 2 104 27 104 50 0 7 14
26 30 42 25 24 29 34 24 61 -5 27 -1 34 25 53 31 22 42 63 21 76 -12 8 -13 45
-1 45 5 0 13 -6 19 -13z m176 -52 c-4 -8 1 -26 10 -40 22 -33 20 -55 -8 -89
-26 -31 -64 -31 -52 0 3 9 6 35 6 59 0 33 6 50 22 65 26 24 29 25 22 5z m-524
-70 c0 -8 -7 -15 -15 -15 -9 0 -12 6 -9 15 4 8 10 15 15 15 5 0 9 -7 9 -15z
m1300 -20 c0 -15 -6 -25 -14 -25 -19 0 -28 14 -20 34 10 25 34 19 34 -9z
m-597 -27 c7 -23 -5 -43 -35 -59 -16 -9 -18 -5 -18 36 0 41 2 45 24 45 16 0
26 -7 29 -22z m-533 -22 c0 -21 -50 -50 -63 -37 -7 7 -5 16 8 31 21 23 55 27
55 6z m-100 -36 c0 -5 -7 -10 -15 -10 -8 0 -15 5 -15 10 0 6 7 10 15 10 8 0
15 -4 15 -10z m-219 -156 c25 -13 30 -20 27 -46 -4 -41 -44 -72 -81 -63 -27 7
-37 37 -17 50 15 9 12 25 -4 25 -22 0 -30 19 -16 35 16 19 53 19 91 -1z m-223
-36 c15 -19 26 -88 14 -88 -6 0 -18 -3 -26 -6 -12 -5 -15 -2 -10 10 3 8 -3 27
-14 41 -12 15 -18 33 -15 41 6 17 37 18 51 2z m1030 -50 c-4 -27 -28 -36 -28
-10 0 20 8 32 22 32 5 0 8 -10 6 -22z m-928 -48 c0 -5 -4 -10 -10 -10 -5 0
-18 -10 -30 -22 -11 -12 -20 -17 -20 -12 0 13 38 54 50 54 6 0 10 -4 10 -10z
m478 -13 c4 -20 -27 -69 -39 -61 -13 8 -11 58 3 72 15 15 32 10 36 -11z m420
-76 c4 -36 -21 -64 -50 -55 -9 3 -19 0 -23 -6 -6 -10 -45 -15 -45 -6 0 20 23
56 35 56 8 0 25 11 37 25 28 32 42 27 46 -14z m-953 8 c4 -5 -7 -15 -24 -22
-17 -6 -31 -15 -31 -19 0 -4 -8 -8 -17 -8 -13 0 -10 7 12 30 30 31 49 37 60
19z m531 -40 c3 -5 -8 -9 -25 -9 -31 0 -50 15 -29 23 17 5 47 -3 54 -14z
m-756 -22 c0 -16 -66 -87 -80 -87 -6 0 -10 5 -10 10 0 6 4 10 9 10 5 0 12 13
16 29 8 36 65 69 65 38z m813 -83 c20 -3 37 -10 37 -16 0 -5 -20 -18 -44 -29
-52 -23 -91 -12 -99 27 -4 23 17 35 53 28 8 -2 32 -6 53 -10z m-415 -6 c19
-19 14 -38 -11 -38 -30 0 -62 24 -53 38 9 16 49 15 64 0z m282 -18 c-12 -22
-27 -25 -50 -10 -13 9 -13 11 0 20 8 5 25 10 38 10 20 0 21 -3 12 -20z m-371
-95 c2 -11 11 -31 20 -45 10 -14 23 -45 30 -70 7 -25 18 -48 25 -52 6 -4 15
-29 21 -55 13 -62 38 -76 123 -69 61 5 62 5 62 -19 0 -14 -5 -25 -11 -25 -6 0
-20 -11 -31 -25 -19 -24 -24 -25 -82 -19 -51 5 -74 2 -120 -15 -32 -12 -80
-21 -111 -21 -68 0 -105 -14 -105 -39 0 -29 25 -43 69 -40 50 4 60 -5 36 -31
-18 -19 -17 -20 3 -20 11 0 24 5 27 11 4 6 13 8 21 5 8 -3 11 0 8 8 -6 17 12
31 21 16 3 -5 20 -10 37 -10 17 0 39 -7 48 -15 14 -13 25 -13 66 -4 73 16 104
2 104 -49 0 -32 5 -41 25 -50 33 -15 36 -62 4 -62 -11 0 -27 -7 -35 -15 -10
-9 -24 -13 -40 -9 -17 4 -26 1 -31 -11 -8 -22 20 -45 54 -45 30 0 99 -35 106
-54 3 -8 22 -22 42 -32 20 -9 39 -24 42 -31 7 -18 -17 -93 -29 -93 -5 0 -13
-11 -18 -25 -14 -37 -43 -31 -93 18 -64 62 -122 107 -191 149 -33 21 -92 69
-131 107 -38 37 -119 109 -180 160 l-110 92 -70 -5 c-38 -2 -101 -10 -139 -17
-68 -12 -70 -12 -84 10 l-15 22 -22 -27 c-13 -16 -33 -28 -51 -30 -100 -9
-194 -34 -194 -52 0 -4 -15 -16 -32 -27 -18 -10 -67 -47 -108 -82 -91 -78 -98
-83 -104 -83 -7 0 33 70 55 95 9 11 20 30 24 43 3 12 23 42 43 66 20 24 53 63
72 87 54 67 82 89 113 89 18 0 30 6 33 18 12 39 35 69 76 99 23 17 47 32 52
32 4 1 25 15 46 31 21 17 41 30 44 30 4 0 24 11 46 25 22 14 47 25 56 25 10 0
36 11 60 25 38 23 43 23 49 7 6 -16 7 -16 16 1 7 12 7 22 -1 32 -14 17 4 30
28 19 24 -10 112 -12 118 -2 7 10 88 48 106 48 7 1 24 7 38 15 33 19 64 15 69
-10z m-279 -25 c-8 -5 -24 -10 -35 -10 -17 0 -17 2 -5 10 8 5 24 10 35 10 17
0 17 -2 5 -10z m911 -123 c-13 -13 -26 -3 -16 12 3 6 11 8 17 5 6 -4 6 -10 -1
-17z m-3357 -96 c8 -12 -32 -61 -50 -61 -22 0 -16 36 9 53 26 19 34 20 41 8z
m276 -266 c0 -8 -7 -15 -15 -15 -16 0 -20 12 -8 23 11 12 23 8 23 -8z m2820
-52 c0 -14 -19 -38 -25 -32 -8 8 5 39 16 39 5 0 9 -3 9 -7z m-2816 -68 c-4 -8
-1 -22 6 -30 16 -19 5 -34 -36 -51 -46 -19 -71 -19 -54 1 7 8 19 15 26 15 16
0 19 16 4 25 -17 10 -11 30 13 41 32 17 47 16 41 -1z m3086 -680 c0 -8 -4 -15
-10 -15 -5 0 -10 7 -10 15 0 8 5 15 10 15 6 0 10 -7 10 -15z m863 -71 c142
-71 212 -85 413 -83 149 1 164 3 221 39 49 31 41 -19 -12 -71 -52 -52 -119
-72 -240 -71 -56 0 -121 6 -146 12 -137 39 -208 64 -254 93 -70 43 -142 137
-105 137 6 0 61 -25 123 -56z m-596 -256 c17 -23 0 -61 -32 -70 -31 -8 -85 -2
-85 11 0 19 34 52 63 60 44 13 43 13 54 -1z m341 -24 c31 -2 102 -7 157 -10
63 -4 106 -11 115 -19 12 -11 40 -13 120 -9 58 3 224 7 370 7 214 2 270 0 292
-12 23 -13 29 -12 52 2 22 15 54 16 248 14 123 -1 228 -5 233 -9 6 -3 39 -2
74 3 53 8 67 6 82 -7 14 -13 26 -14 74 -5 32 6 62 8 67 5 5 -3 138 -8 296 -10
220 -4 291 -8 307 -18 15 -10 33 -12 63 -6 47 8 62 -8 32 -35 -13 -12 -27 -15
-49 -10 -20 4 -38 1 -54 -10 -26 -17 -106 -12 -118 8 -4 6 -24 2 -51 -11 -40
-20 -50 -21 -108 -10 -45 8 -72 8 -94 0 -21 -7 -226 -9 -636 -6 -603 4 -719 7
-965 19 -71 3 -182 8 -245 9 -63 2 -171 8 -240 12 -69 5 -132 8 -140 7 -8 -1
-43 3 -77 8 -76 13 -114 -1 -124 -46 -13 -55 -59 -176 -83 -213 -24 -39 -96
-188 -96 -199 0 -4 -6 -14 -13 -22 -7 -9 -22 -36 -32 -61 -25 -60 -49 -79 -89
-71 -29 6 -32 11 -42 69 -6 34 -17 68 -24 77 -7 8 -10 25 -7 37 8 36 54 140
69 157 30 34 161 146 178 153 18 7 100 103 100 117 0 4 14 15 30 24 17 10 30
23 30 28 0 5 12 21 28 35 23 20 34 23 72 19 31 -4 51 -2 65 9 17 12 23 12 48
0 15 -8 53 -17 85 -20z m-4220 -105 c47 -45 49 -51 26 -70 -9 -7 -20 -23 -25
-36 -10 -26 -44 -31 -53 -7 -11 27 -6 61 9 74 22 18 18 30 -9 30 -27 0 -59 26
-51 41 14 22 61 8 103 -32z m7048 6 c2 -5 -5 -21 -15 -33 l-18 -24 -31 29
c-18 16 -30 31 -28 34 9 9 89 4 92 -6z m1295 -47 c20 -37 30 -36 -298 -42
-238 -5 -243 -5 -243 15 0 30 -11 29 329 44 57 2 105 5 106 7 2 2 24 2 49 0
34 -3 49 -10 57 -24z m-8641 1 c0 -9 -7 -22 -15 -29 -8 -7 -15 -19 -15 -26 0
-17 -22 -18 -38 -2 -11 11 -17 60 -8 69 3 2 21 4 40 5 28 0 36 -4 36 -17z
m8765 12 c7 -12 -12 -24 -25 -16 -11 7 -4 25 10 25 5 0 11 -4 15 -9z m-730
-15 c16 -12 17 -16 6 -30 -11 -12 -33 -16 -102 -16 -48 0 -90 4 -93 8 -22 36
146 70 189 38z m-347 -18 c-3 -20 -9 -22 -95 -25 -95 -3 -116 5 -64 27 22 9
33 9 47 0 15 -9 27 -8 54 4 49 21 62 20 58 -6z m-7050 -360 c-6 -18 -28 -21
-28 -4 0 9 7 16 16 16 9 0 14 -5 12 -12z m3468 -152 c15 -12 17 -18 8 -33 -14
-23 -43 -23 -57 -1 -8 12 -7 21 2 32 16 20 22 20 47 2z m1764 -10 c0 -16 -18
-31 -27 -22 -8 8 5 36 17 36 5 0 10 -6 10 -14z m-1990 -96 c0 -16 -11 -41 -25
-57 -23 -27 -24 -27 -25 -6 0 12 4 32 9 45 5 13 12 31 15 41 8 26 26 11 26
-23z m4486 -437 c-11 -11 -19 6 -11 24 8 17 8 17 12 0 3 -10 2 -21 -1 -24z
m-1284 -18 c0 -5 -5 -11 -11 -13 -6 -2 -11 4 -11 13 0 9 5 15 11 13 6 -2 11
-8 11 -13z m1336 -58 c2 -12 -3 -17 -17 -17 -23 0 -24 1 -15 25 8 19 28 15 32
-8z m-4143 3 c8 -13 -20 -24 -42 -16 -15 6 -15 8 -3 16 20 13 37 12 45 0z
m3154 -19 c16 -10 6 -31 -14 -31 -17 0 -28 17 -20 30 8 12 16 12 34 1z m-501
-35 c4 -21 -14 -37 -35 -29 -14 5 -18 35 -6 47 12 12 38 1 41 -18z m676 -18
c-15 -27 -27 -38 -35 -32 -13 8 9 44 27 44 9 0 12 -5 8 -12z m-1050 -60 c14
-55 -2 -168 -24 -168 -21 0 -34 32 -24 59 7 17 7 34 1 49 -7 14 -6 31 3 52 15
35 35 39 44 8z m-675 -17 c12 -8 10 -11 -11 -16 -14 -4 -30 -17 -37 -31 -12
-28 -36 -32 -46 -7 -4 13 2 25 22 40 30 25 49 28 72 14z m551 -55 c0 -33 -21
-66 -41 -66 -13 0 -11 22 6 64 19 45 35 46 35 2z m262 2 c-9 -9 -12 -7 -12 12
0 19 3 21 12 12 9 -9 9 -15 0 -24z m-644 -55 c3 -17 -4 -21 -40 -26 -46 -6
-79 9 -40 19 12 4 22 10 22 14 0 9 29 19 45 15 6 -1 11 -11 13 -22z m598 11
c-3 -9 -6 -22 -6 -29 0 -18 -40 -56 -52 -49 -14 9 -9 40 13 68 23 29 55 36 45
10z m-166 -84 c0 -5 -10 -10 -22 -10 -19 0 -20 2 -8 10 19 13 30 13 30 0z
m-5995 -24 c0 -27 -21 -31 -28 -6 -8 30 -23 24 -33 -12 l-10 -33 -17 34 c-9
19 -17 36 -17 38 0 2 24 3 53 1 44 -3 52 -6 52 -22z m5945 -31 c0 -52 -15 -60
-23 -12 -4 27 6 57 19 57 2 0 4 -20 4 -45z"/>
<path d="M4800 8869 c0 -17 4 -28 10 -24 6 3 10 17 10 31 0 13 -4 24 -10 24
-5 0 -10 -14 -10 -31z"/>
<path d="M4170 8429 c0 -31 4 -48 10 -44 6 3 10 26 10 51 0 24 -4 44 -10 44
-5 0 -10 -23 -10 -51z"/>
<path d="M2910 8370 c0 -13 11 -13 30 0 12 8 11 10 -7 10 -13 0 -23 -4 -23
-10z"/>
<path d="M5805 6236 c-16 -7 -39 -23 -50 -36 l-20 -23 35 5 c19 3 66 14 103
23 65 17 68 19 45 31 -30 17 -75 17 -113 0z"/>
<path d="M5966 6219 c6 -10 142 -21 164 -14 43 14 6 24 -79 22 -49 -1 -87 -5
-85 -8z"/>
<path d="M2943 5543 c-35 -13 0 -54 66 -78 23 -8 61 -29 84 -47 33 -27 54 -34
107 -40 36 -4 88 -10 116 -13 48 -7 52 -6 77 25 15 17 27 35 27 38 0 4 -19 17
-42 29 -38 20 -52 22 -128 17 l-85 -7 -65 42 c-63 39 -116 51 -157 34z"/>
<path d="M3603 5228 c-23 -30 -24 -38 -3 -38 23 0 38 26 23 41 -6 6 -13 5 -20
-3z"/>
<path d="M2943 5204 c8 -9 41 -28 92 -53 41 -21 175 -37 175 -22 0 19 -72 51
-113 51 -23 0 -60 7 -82 15 -42 15 -83 20 -72 9z"/>
<path d="M5078 3439 c-13 -7 -18 -22 -18 -50 0 -22 -5 -83 -12 -135 -10 -87
-8 -117 8 -101 10 10 33 146 33 199 1 26 5 58 11 72 10 28 5 31 -22 15z"/>
<path d="M3954 3306 c-3 -8 -20 -17 -37 -21 -25 -6 -28 -9 -12 -12 22 -6 87
26 79 38 -8 13 -24 11 -30 -5z"/>
<path d="M3343 3294 c-8 -20 13 -42 27 -28 12 12 3 44 -11 44 -5 0 -12 -7 -16
-16z"/>
<path d="M3133 3240 c-12 -33 -11 -35 18 -20 21 12 26 50 6 50 -7 0 -18 -13
-24 -30z"/>
<path d="M1992 11978 c2 -13 10 -23 18 -23 8 0 16 10 18 23 3 17 -2 22 -18 22
-16 0 -21 -5 -18 -22z"/>
<path d="M8282 5745 c-1 -22 -6 -54 -11 -71 -8 -30 1 -65 14 -52 3 3 4 41 2
84 -1 44 -4 61 -5 39z"/>
<path d="M922 5678 c-6 -6 -7 -21 -1 -42 5 -17 7 -43 4 -57 -5 -20 1 -34 20
-54 23 -25 24 -30 10 -45 -19 -21 -20 -44 -1 -37 8 3 17 -1 20 -9 11 -29 6
-44 -14 -44 -28 0 -39 -27 -53 -131 -16 -119 -31 -132 -86 -72 -21 22 -53 48
-70 57 -17 9 -31 20 -31 24 0 10 -102 62 -121 62 -33 0 -135 -82 -124 -100 3
-5 25 -7 50 -3 31 4 51 1 67 -9 13 -8 36 -18 51 -22 19 -4 33 -17 42 -39 9
-22 24 -36 48 -45 19 -7 42 -23 50 -36 9 -13 32 -31 52 -40 30 -14 34 -20 24
-32 -6 -8 -9 -17 -5 -21 11 -11 87 78 93 108 6 32 13 35 31 17 21 -21 39 19
62 139 l21 112 -27 56 c-19 38 -25 61 -18 69 45 62 47 67 36 89 -6 12 -12 31
-14 42 -4 25 -101 78 -116 63z"/>
<path d="M346 5595 c-17 -18 -13 -35 8 -35 24 0 38 26 22 39 -11 9 -17 8 -30
-4z"/>
<path d="M8238 5517 c-10 -23 -18 -49 -18 -57 1 -8 10 8 20 35 24 61 22 81 -2
22z"/>
<path d="M77 5455 c-32 -19 -62 -35 -68 -35 -5 0 -9 -9 -9 -20 0 -15 6 -20 28
-19 15 0 21 3 15 6 -7 2 -13 11 -13 18 0 10 7 11 28 6 18 -6 36 -3 53 7 33 19
59 10 59 -20 0 -13 13 -49 29 -80 26 -50 28 -60 15 -72 -8 -8 -14 -29 -14 -47
0 -18 -7 -40 -16 -50 -15 -17 -15 -19 0 -34 9 -9 16 -33 16 -52 0 -29 8 -44
42 -76 41 -39 42 -43 43 -101 0 -44 5 -66 17 -78 10 -10 21 -36 24 -58 4 -22
12 -40 18 -40 13 0 14 -132 2 -195 -20 -102 -77 -167 -101 -113 -7 16 -20 24
-42 26 -28 3 -33 -1 -39 -23 -8 -31 -38 -49 -61 -37 -17 10 -66 -2 -91 -21
-14 -11 -17 -180 -3 -238 4 -19 20 -48 36 -63 l27 -27 -6 38 c-3 21 -8 63 -11
93 -7 67 7 87 87 126 29 15 67 36 83 48 17 11 56 34 87 50 72 37 124 88 113
113 -18 42 11 153 40 153 21 0 26 -15 10 -36 -18 -24 -20 -74 -2 -74 18 1 45
26 114 105 86 100 116 151 103 175 -5 10 -10 32 -10 48 0 19 -11 40 -30 60
-19 20 -30 42 -30 60 0 15 -5 33 -12 40 -17 17 -48 15 -48 -3 0 -16 -16 -20
-24 -6 -8 13 -114 61 -135 61 -10 0 -30 -9 -44 -20 -14 -12 -28 -16 -32 -11
-3 5 0 13 8 18 24 15 48 64 45 91 -2 21 -11 30 -38 38 -38 12 -60 43 -60 85 0
14 -3 29 -7 33 -5 4 -8 30 -8 58 0 40 -4 53 -20 62 -10 6 -30 23 -44 39 -33
35 -54 34 -124 -8z m356 -485 c14 -11 30 -20 36 -20 16 0 14 -17 -5 -45 -21
-33 -49 -32 -82 3 -15 16 -35 32 -44 35 -24 9 -22 22 5 35 34 16 62 14 90 -8z
m87 -55 c0 -8 -4 -15 -9 -15 -5 0 -11 7 -15 15 -3 9 0 15 9 15 8 0 15 -7 15
-15z"/>
<path d="M8202 5428 c-14 -14 -17 -52 -3 -44 7 5 22 56 17 56 -1 0 -7 -5 -14
-12z"/>
<path d="M496 5358 c-3 -17 -4 -33 -2 -35 8 -8 36 29 36 48 0 31 -27 22 -34
-13z"/>
<path d="M1548 5268 c-14 -18 -33 -48 -43 -67 -16 -32 -16 -36 -1 -46 9 -7 16
-22 16 -35 0 -12 11 -35 25 -52 14 -16 25 -42 25 -58 0 -30 24 -58 35 -40 3 6
7 50 8 99 2 69 -2 93 -14 107 -17 20 -15 89 2 100 16 9 10 24 -10 24 -10 0
-30 -15 -43 -32z"/>
<path d="M792 4939 c-13 -22 -21 -44 -17 -47 9 -9 65 57 65 75 0 26 -26 12
-48 -28z"/>
<path d="M0 4839 c0 -11 4 -17 10 -14 13 8 13 35 0 35 -5 0 -10 -9 -10 -21z"/>
<path d="M2003 4353 c-23 -36 -34 -49 -57 -74 -21 -21 -16 -32 21 -43 14 -5
30 1 49 17 23 20 28 32 28 72 1 57 -15 68 -41 28z"/>
<path d="M8690 4096 c0 -22 -12 -26 -56 -16 -29 7 -45 5 -61 -5 -29 -19 -52
-19 -59 0 -9 24 -33 18 -40 -10 -9 -38 3 -70 31 -83 15 -7 23 -17 20 -22 -11
-17 -54 -11 -67 10 -14 22 -33 26 -44 8 -4 -6 -9 -79 -11 -162 -2 -83 -5 -178
-6 -211 -2 -33 1 -70 6 -82 7 -16 5 -33 -8 -60 -10 -21 -18 -45 -18 -53 0 -8
-7 -23 -15 -33 -15 -16 -17 -16 -38 4 -19 18 -26 20 -39 9 -17 -14 -20 -47 -5
-70 6 -10 4 -20 -7 -32 -9 -10 -14 -33 -13 -60 0 -24 2 -113 4 -198 1 -85 6
-166 10 -180 12 -41 39 -100 45 -100 3 0 14 19 24 41 14 29 16 43 8 53 -8 10
-6 17 8 30 17 16 19 15 24 -24 6 -48 36 -79 51 -53 4 8 8 31 8 52 0 20 -1 75
-2 123 -1 70 3 96 18 125 11 21 23 46 26 56 3 9 13 20 21 24 22 8 65 -13 65
-32 0 -21 45 -108 64 -124 8 -7 25 -11 38 -9 18 2 23 10 25 38 1 19 3 58 5 85
2 28 13 68 23 90 18 36 23 40 55 37 44 -3 73 -37 97 -111 14 -47 18 -51 23
-30 8 31 4 104 -6 120 -4 8 -14 103 -21 214 -24 352 -24 351 -58 303 -26 -38
-36 -5 -29 98 l7 91 -31 22 c-25 18 -33 33 -43 81 -6 33 -16 60 -20 60 -5 0
-9 -6 -9 -14z m-340 -988 c0 -16 -3 -19 -11 -11 -6 6 -8 16 -5 22 11 17 16 13
16 -11z"/>
<path d="M1 3863 c-1 -90 3 -163 7 -163 8 0 98 63 130 91 8 6 10 18 6 28 -4 9
-7 26 -8 38 -2 33 -14 38 -27 10 -11 -25 -48 -43 -60 -29 -3 4 -14 43 -23 87
-10 44 -19 85 -21 90 -2 6 -4 -63 -4 -152z"/>
<path d="M8272 3588 c-10 -12 -9 -18 3 -28 8 -7 15 -20 15 -28 0 -11 3 -13 11
-5 7 7 6 20 -3 43 -12 28 -15 30 -26 18z"/>
<path d="M8910 2953 c0 -23 5 -45 10 -48 13 -8 13 55 0 75 -7 11 -10 4 -10
-27z"/>
<path d="M2538 2429 c-10 -6 -18 -17 -18 -24 0 -20 39 -19 47 1 8 22 -8 35
-29 23z"/>
<path d="M2269 2285 c-14 -8 -34 -26 -43 -39 -9 -14 -34 -35 -56 -46 -22 -11
-47 -31 -56 -45 -9 -14 -23 -25 -31 -25 -8 0 -27 -12 -42 -27 -15 -16 -45 -43
-67 -62 -25 -22 -49 -58 -66 -99 -31 -71 -34 -93 -16 -121 9 -15 8 -26 -3 -52
-9 -23 -15 -81 -16 -179 -3 -220 -3 -220 -14 -295 -5 -40 -6 -100 -1 -140 l7
-70 22 120 c12 66 25 170 29 230 3 61 10 115 14 120 4 6 10 33 13 60 3 28 15
72 27 100 12 27 19 59 15 72 -5 21 -4 22 27 9 17 -8 35 -23 40 -35 4 -11 11
-21 16 -21 17 0 36 -60 23 -73 -19 -19 -12 -30 17 -24 23 5 36 -2 75 -39 26
-24 53 -44 60 -44 7 0 32 -14 55 -31 66 -49 67 -100 1 -114 -34 -8 -37 -28 -7
-49 20 -14 24 -14 43 4 14 13 35 20 59 20 l38 0 -8 38 c-5 20 -8 56 -7 80 0
31 -3 40 -10 33 -36 -36 -73 13 -62 80 6 40 6 42 -8 24 -13 -17 -18 -18 -41
-7 -14 6 -31 23 -38 37 -6 13 -21 31 -34 40 -12 8 -53 54 -90 102 -38 49 -79
98 -91 110 -27 26 -28 34 -7 81 28 64 30 67 70 70 32 3 48 13 93 60 l53 57 11
-30 c9 -28 7 -32 -43 -76 -50 -44 -52 -48 -46 -83 14 -73 65 -70 121 7 17 23
40 46 50 52 45 24 131 84 149 103 23 26 14 52 -17 52 -13 0 -55 -14 -92 -31
-37 -16 -69 -29 -71 -27 -8 9 19 84 37 104 11 11 16 24 12 27 -11 12 -67 7
-94 -8z"/>
<path d="M1160 2040 c-17 -22 -40 -40 -51 -40 -21 0 -26 -25 -7 -36 6 -4 19 2
29 14 9 12 26 22 37 22 22 0 47 25 56 58 12 38 -28 27 -64 -18z"/>
<path d="M3594 2005 c-8 -31 5 -48 29 -39 22 8 21 27 -3 49 -18 17 -19 16 -26
-10z"/>
<path d="M1078 1925 c-8 -19 -8 -28 2 -40 17 -20 33 -19 54 4 14 15 15 24 6
40 -15 29 -48 27 -62 -4z"/>
<path d="M1189 1907 c-13 -13 -30 -34 -38 -47 -11 -20 -11 -25 2 -35 10 -7 13
-20 10 -38 -5 -25 -3 -27 30 -27 19 0 38 6 40 13 3 6 6 -2 6 -19 1 -37 24 -47
76 -33 32 9 60 49 39 56 -48 17 -59 30 -65 77 -8 74 -53 98 -100 53z"/>
<path d="M3517 1820 c-14 -28 -22 -50 -16 -50 16 0 59 51 59 71 0 36 -18 27
-43 -21z"/>
<path d="M1491 1822 c-49 -63 -101 -176 -101 -221 0 -22 -11 -66 -23 -98 -31
-75 -84 -244 -98 -308 -6 -28 -10 -139 -8 -255 1 -121 -3 -240 -10 -290 -20
-137 -18 -244 7 -347 12 -51 26 -100 31 -110 6 -10 20 -42 32 -70 12 -29 25
-53 30 -53 4 0 13 -16 20 -35 11 -31 17 -35 47 -35 22 0 40 7 47 17 13 17 14
17 32 0 18 -16 62 -17 590 -17 570 0 571 0 566 20 -4 14 -12 20 -27 18 -15 -2
-21 2 -21 15 0 25 86 55 140 49 55 -5 93 11 101 44 5 21 2 31 -14 44 -11 9
-22 28 -24 41 -7 53 -97 30 -129 -32 -11 -22 -25 -39 -32 -39 -19 0 -37 21
-37 43 0 36 -42 -5 -60 -59 -13 -37 -22 -50 -39 -52 -24 -4 -91 24 -91 37 0 4
-16 15 -35 24 -19 9 -46 35 -60 57 -25 40 -28 41 -65 35 -27 -4 -41 -2 -47 7
-4 7 -17 18 -28 24 -11 6 -24 24 -30 40 -18 53 -73 125 -119 155 -41 28 -116
123 -116 148 0 16 47 -10 90 -49 93 -86 110 -103 115 -121 7 -22 15 -23 47 -8
19 8 35 5 81 -15 32 -15 66 -26 77 -26 16 0 20 -7 20 -32 0 -17 -8 -40 -17
-50 -13 -15 -14 -21 -4 -31 10 -9 15 -8 27 8 17 22 44 21 57 -1 14 -24 77 -6
126 37 24 22 50 39 58 39 8 0 42 -11 76 -24 34 -14 89 -29 121 -35 33 -6 66
-17 75 -25 9 -7 37 -20 62 -28 25 -9 58 -27 74 -42 l28 -26 43 24 c39 22 50
24 101 16 80 -12 129 -28 143 -45 11 -13 18 -12 59 11 25 15 51 32 58 38 21
19 3 54 -41 80 -22 13 -54 38 -70 55 -19 20 -40 31 -57 31 -18 0 -39 12 -61
36 -38 38 -92 57 -140 47 -24 -5 -30 -2 -35 16 -3 11 -9 21 -14 21 -5 0 -18 9
-29 20 -11 11 -32 23 -46 26 -15 4 -35 15 -45 25 -23 23 -44 16 -59 -22 -12
-29 -14 -30 -59 -22 -25 4 -67 7 -93 6 l-47 -3 -16 58 c-28 99 -31 107 -48
110 -10 2 -28 -10 -42 -26 -14 -17 -43 -39 -66 -50 l-40 -20 -9 23 c-5 12 -16
25 -24 28 -9 4 -21 18 -28 32 -17 39 -54 34 -68 -10 -6 -19 -21 -42 -33 -50
-33 -23 -137 -19 -226 9 -42 14 -89 27 -104 31 -22 4 -33 17 -48 50 -11 25
-24 45 -30 45 -5 0 -14 11 -19 25 -5 14 -16 25 -23 25 -8 0 -28 20 -46 45 -17
24 -35 47 -40 49 -5 3 -21 -6 -35 -19 -35 -32 -43 -31 -64 6 -17 30 -18 31
-79 25 -59 -5 -64 -4 -93 25 -16 17 -30 36 -31 42 -1 7 -2 27 -4 45 -1 18 -12
43 -22 55 -11 12 -27 40 -36 63 -14 37 -14 46 5 122 22 85 27 90 73 72 18 -7
33 -7 46 0 11 7 19 7 19 1 0 -5 11 -22 24 -38 22 -27 24 -33 14 -77 -9 -43 -8
-51 16 -87 15 -22 31 -37 35 -34 5 3 12 31 16 63 5 45 3 68 -11 98 -24 53 -27
167 -7 226 13 38 14 51 4 76 -10 23 -17 29 -33 24 -16 -4 -20 -1 -16 9 3 8 11
32 19 54 7 22 14 41 15 43 1 2 21 -8 44 -23 l42 -27 54 22 c68 28 135 110 89
110 -8 0 -15 6 -15 14 0 15 -52 46 -78 46 -8 0 -20 -8 -27 -17 -11 -14 -17
-15 -36 -6 -13 6 -49 14 -80 18 l-56 6 -32 -39z m39 -272 c-8 -47 -17 -62 -56
-97 -25 -24 -50 -43 -54 -43 -31 0 2 117 53 187 30 42 31 43 49 25 16 -16 17
-25 8 -72z m-190 -586 c0 -19 -4 -34 -10 -34 -5 0 -10 18 -10 41 0 24 4 38 10
34 6 -3 10 -22 10 -41z m58 -334 c20 -21 54 -46 75 -55 21 -9 40 -22 44 -30 3
-8 15 -15 27 -15 29 0 38 -9 58 -52 20 -44 48 -51 48 -13 0 37 30 32 73 -12
21 -21 51 -51 67 -68 17 -16 33 -40 36 -52 3 -12 19 -27 36 -34 16 -7 41 -29
55 -51 14 -21 28 -38 32 -39 46 -6 91 -35 91 -60 0 -16 -8 -19 -45 -19 -31 0
-47 5 -54 17 -5 10 -23 18 -39 19 -17 1 -50 11 -73 22 -24 10 -61 27 -82 36
-72 31 -281 211 -291 250 -3 14 -15 27 -26 31 -10 3 -21 14 -24 23 -3 9 -18
31 -34 47 -29 32 -52 76 -52 101 0 21 30 3 78 -46z"/>
<path d="M3955 1839 c-4 -11 -4 -23 -2 -26 9 -8 27 7 27 22 0 23 -18 27 -25 4z"/>
<path d="M2277 1843 c-13 -13 -7 -53 8 -53 10 0 15 10 15 30 0 29 -9 38 -23
23z"/>
<path d="M964 1752 c-13 -8 -27 -72 -16 -72 4 1 20 11 36 24 39 33 21 76 -20
48z"/>
<path d="M3585 1709 c-92 -74 -98 -80 -87 -91 8 -8 23 -6 52 6 22 9 50 16 61
16 18 0 20 4 15 26 -5 18 -2 32 10 45 11 12 14 23 8 28 -5 6 -29 -6 -59 -30z"/>
<path d="M2640 1585 c0 -29 26 -45 72 -45 42 0 58 -15 58 -56 0 -23 5 -33 20
-37 15 -4 20 -14 20 -36 0 -56 47 -37 183 74 25 21 23 55 -3 48 -14 -4 -34 5
-60 26 -35 28 -50 32 -137 41 -149 14 -153 14 -153 -15z"/>
<path d="M2010 1585 c0 -15 18 -40 24 -34 3 3 -1 14 -9 25 -8 10 -14 15 -15 9z"/>
<path d="M2500 1474 c0 -47 33 -104 72 -127 17 -10 33 -15 36 -13 3 3 -14 44
-36 91 -45 93 -72 112 -72 49z"/>
<path d="M2058 1478 c-3 -7 -1 -26 4 -43 4 -16 8 -45 8 -63 0 -20 10 -46 25
-66 16 -21 31 -60 39 -106 8 -40 19 -76 25 -79 6 -4 14 -35 17 -70 5 -44 13
-69 27 -82 42 -39 80 27 40 69 -45 45 -57 76 -54 137 2 51 -1 63 -18 79 -12
11 -21 29 -21 42 0 13 -10 47 -21 76 -12 29 -25 66 -28 83 -7 31 -36 46 -43
23z"/>
<path d="M3173 1446 c-30 -14 -53 -42 -53 -67 0 -17 77 -5 101 17 22 20 22 58
-1 61 -8 1 -29 -4 -47 -11z"/>
<path d="M2666 1395 c-7 -19 3 -47 15 -39 5 3 9 14 9 24 0 24 -16 34 -24 15z"/>
<path d="M2651 1213 c-14 -51 -15 -48 22 -83 l32 -30 12 27 c7 16 12 36 13 45
0 18 -46 78 -60 78 -5 0 -14 -17 -19 -37z"/>
<path d="M343 1155 c-3 -9 -3 -18 0 -22 10 -10 37 6 37 22 0 20 -29 20 -37 0z"/>
<path d="M2332 1118 c-18 -18 -14 -53 7 -72 19 -18 19 -18 0 -49 -20 -34 -25
-67 -9 -67 5 0 33 -21 62 -47 35 -31 53 -55 53 -71 1 -13 9 -28 18 -33 9 -6
17 -16 17 -24 0 -29 22 -26 51 6 16 18 29 43 29 57 0 13 8 37 17 53 15 24 22
29 44 24 30 -7 48 10 30 28 -6 6 -11 25 -11 43 0 25 -7 36 -35 55 -19 13 -35
27 -35 32 0 4 -9 7 -20 7 -11 0 -27 11 -36 25 -12 19 -22 23 -40 19 -14 -4
-37 -2 -52 4 -49 19 -78 22 -90 10z"/>
<path d="M3210 946 c0 -34 4 -46 13 -43 15 5 13 65 -2 80 -8 8 -11 -2 -11 -37z"/>
<path d="M2255 900 c-3 -5 3 -10 14 -10 12 0 21 5 21 10 0 6 -6 10 -14 10 -8
0 -18 -4 -21 -10z"/>
<path d="M2240 851 c0 -10 7 -24 15 -31 8 -7 15 -19 15 -26 0 -8 7 -14 15 -14
22 0 21 76 -1 84 -28 11 -44 6 -44 -13z"/>
<path d="M476 834 c-8 -21 -8 -24 3 -24 12 0 22 28 12 35 -5 3 -12 -2 -15 -11z"/>
<path d="M2810 765 c-10 -13 -10 -19 5 -35 34 -37 63 -21 42 24 -14 29 -29 33
-47 11z"/>
<path d="M2385 761 c-6 -11 9 -23 19 -14 9 9 7 23 -3 23 -6 0 -12 -4 -16 -9z"/>
<path d="M3072 663 c2 -10 10 -18 18 -18 8 0 16 8 18 18 2 12 -3 17 -18 17
-15 0 -20 -5 -18 -17z"/>
<path d="M3512 643 c-13 -24 -3 -83 13 -83 14 0 35 50 35 81 0 24 -36 25 -48
2z"/>
<path d="M8696 374 c-8 -21 -8 -24 3 -24 5 0 11 9 14 20 6 24 -8 27 -17 4z"/>
<path d="M4043 335 c-10 -17 -15 -18 -32 -7 -18 11 -21 10 -21 -6 0 -11 8 -26
18 -36 18 -15 20 -15 36 3 10 11 16 30 14 43 -3 22 -4 22 -15 3z"/>
<path d="M8517 314 c-11 -11 3 -24 24 -24 12 0 19 5 17 13 -5 14 -31 21 -41
11z"/>
<path d="M4070 276 c0 -8 5 -18 10 -21 6 -3 10 1 10 9 0 8 -4 18 -10 21 -5 3
-10 -1 -10 -9z"/>
<path d="M8967 264 c-9 -10 4 -34 19 -34 8 0 14 9 14 20 0 19 -19 27 -33 14z"/>
<path d="M4074 215 c-7 -29 5 -70 13 -45 3 8 12 23 20 32 8 9 12 22 8 27 -11
20 -34 12 -41 -14z"/>
<path d="M6925 147 c-4 -8 -5 -26 -3 -39 4 -23 4 -23 18 5 10 21 11 30 2 39
-8 8 -13 7 -17 -5z"/>
<path d="M3020 106 c0 -14 5 -28 10 -31 6 -4 10 7 10 24 0 17 -4 31 -10 31 -5
0 -10 -11 -10 -24z"/>
</g>
</svg>
