<?xml version="1.0" standalone="no"?>
<!DOCTYPE svg PUBLIC "-//W3C//DTD SVG 20010904//EN"
 "http://www.w3.org/TR/2001/REC-SVG-20010904/DTD/svg10.dtd">
<svg version="1.0" xmlns="http://www.w3.org/2000/svg"
 width="300.000000pt" height="560.000000pt" viewBox="0 0 300.000000 560.000000"
 preserveAspectRatio="xMidYMid meet">
<metadata>
Created by potrace 1.10, written by Peter Selinger 2001-2011
</metadata>
<g transform="translate(0.000000,560.000000) scale(0.050000,-0.050000)"
fill="#000000" stroke="none">
<path d="M7 9075 c11 -2175 14 -2304 67 -2324 20 -8 27 -2 20 16 -6 16 -2 37
9 48 14 14 13 25 -1 34 -26 16 -30 284 -5 299 10 6 12 45 5 87 -14 87 2 345
20 315 7 -11 14 -96 16 -188 2 -92 8 -175 13 -184 6 -9 14 -130 19 -270 5
-139 19 -265 31 -279 16 -19 15 -38 -2 -70 -22 -42 -25 -41 -110 54 l-87 97
-1 -60 c0 -46 4 -53 19 -30 13 20 19 -76 20 -291 0 -179 -8 -329 -19 -340 -12
-12 -13 -94 -2 -219 l17 -200 -1 186 c-1 336 19 213 31 -190 6 -218 22 -609
34 -870 24 -492 16 -1092 -18 -1316 -19 -129 -19 -129 -11 50 30 614 32 760 9
730 -18 -23 -20 54 -11 326 13 390 -4 774 -34 774 -12 0 -15 -41 -7 -105 7
-58 16 -199 20 -315 5 -157 4 -177 -7 -80 -8 72 -16 112 -17 90 -13 -142 -17
-1824 -5 -1760 10 53 16 -27 18 -234 3 -279 23 -403 49 -301 8 29 10 30 12 3
1 -21 20 -33 52 -33 l50 0 -7 532 c-5 388 -2 492 12 383 10 -82 19 -327 21
-543 3 -287 10 -389 26 -375 14 11 47 8 87 -9 90 -38 41 -53 -170 -53 l-168 0
0 -487 1 -488 2377 -2 2376 -1 -18 82 c-10 45 -15 97 -11 114 3 18 14 -16 22
-74 20 -132 -45 -120 659 -130 l596 -8 -9 42 c-5 23 -15 60 -23 82 -12 32 -10
34 7 10 16 -22 21 66 22 325 l0 355 -365 2 c-491 2 -1121 17 -1131 27 -4 4 2
24 14 44 11 21 21 26 21 12 1 -43 41 -27 41 16 0 39 1 39 63 -5 39 -29 66 -38
71 -24 5 15 35 17 90 7 97 -17 130 -9 143 38 6 23 9 19 11 -12 2 -44 62 -67
62 -24 0 12 9 16 20 9 11 -7 21 -1 21 14 1 14 10 8 19 -14 17 -40 17 -40 19 0
2 40 2 40 32 0 26 -34 33 -36 49 -10 17 27 20 27 21 0 1 -20 7 -17 18 10 15
37 18 37 31 5 16 -39 80 -47 101 -13 10 16 19 14 32 -5 14 -22 20 -22 37 3 11
17 20 20 20 8 0 -15 93 -23 280 -25 l280 -4 0 862 c0 629 -6 858 -22 848 -16
-10 -19 35 -9 163 27 371 28 407 13 417 -21 13 -41 -247 -44 -564 -1 -135 -10
-250 -20 -256 -20 -13 -23 38 -18 381 4 293 -26 288 -42 -7 l-11 -213 -6 240
c-5 173 -11 218 -21 160 -16 -89 -30 146 -22 380 6 179 -31 567 -56 598 -23
27 -26 217 -4 203 7 -4 9 41 5 101 -13 204 -43 85 -43 -170 0 -349 22 -642 44
-591 13 30 14 28 4 -11 -6 -27 -16 -194 -21 -370 -15 -503 -41 -657 -44 -260
-10 1136 -33 1927 -44 1490 -7 -236 -3 -596 8 -800 19 -357 9 -545 -27 -508
-9 10 -21 545 -25 1188 -8 1157 -9 1171 -52 1240 -23 39 -43 93 -43 120 0 29
-7 40 -15 27 -18 -28 -808 -60 -848 -34 -15 9 -63 17 -107 17 -50 0 -78 9 -76
23 3 13 -26 47 -65 76 -99 76 -249 506 -249 716 0 50 -29 135 -154 448 -65
163 -165 276 -309 348 -142 72 -277 76 -277 9 0 -25 -6 -31 -15 -17 -11 18
-34 17 -90 -2 -41 -15 -69 -18 -64 -9 19 30 -97 -22 -171 -77 -38 -28 -73 -54
-76 -56 -14 -11 -112 -307 -135 -409 -13 -60 -44 -186 -69 -280 -38 -143 -45
-219 -45 -500 1 -206 -7 -340 -21 -356 -12 -16 -25 -159 -30 -340 -4 -173 -16
-323 -26 -333 -10 -10 -18 -39 -18 -64 0 -62 -28 -73 -78 -32 -41 33 -52 90
-61 312 0 25 -11 33 -31 26 -18 -7 -30 0 -30 18 0 16 8 29 18 29 36 0 71 122
40 142 -21 13 -21 17 -2 18 19 0 18 15 -7 65 l-31 65 54 -59 c60 -66 56 2 -4
71 -16 17 -28 60 -28 96 0 35 -12 88 -28 118 -27 53 -64 186 -113 404 -65 295
-389 679 -446 531 -6 -17 -2 -35 9 -42 11 -7 14 -30 7 -52 -7 -21 -1 -52 12
-68 19 -23 18 -29 -8 -29 -18 0 -38 22 -44 48 -7 26 -34 67 -61 90 -26 23 -48
50 -48 60 0 18 -82 46 -96 33 -4 -4 6 -29 22 -54 16 -26 50 -100 76 -164 47
-117 103 -165 165 -141 36 13 93 -44 93 -93 0 -22 9 -39 20 -39 40 0 19 -58
-40 -107 -66 -56 -74 -96 -32 -177 27 -51 1 -118 -33 -85 -6 6 -56 -3 -110
-21 -117 -39 -215 -34 -215 10 0 19 24 32 66 36 37 4 71 20 77 35 6 16 37 29
69 29 129 0 53 93 -91 113 l-96 13 13 92 c7 51 21 95 32 99 47 16 109 86 85
96 -14 6 -25 32 -25 59 0 26 -7 48 -15 48 -8 0 -33 37 -54 83 -163 339 -422
-1 -409 -535 3 -114 -1 -214 -8 -221 -8 -8 -14 -70 -14 -138 0 -129 -13 -149
-100 -149 -97 0 -53 -112 115 -293 114 -123 269 -198 237 -116 -6 17 1 35 18
42 16 6 24 20 17 32 -17 27 133 0 170 -31 21 -17 34 -14 55 16 27 37 31 37 86
4 32 -19 85 -34 119 -34 33 0 84 -9 113 -20 61 -23 179 47 161 96 -7 16 -1 24
14 18 14 -4 23 -32 21 -61 -3 -44 5 -53 45 -53 28 0 47 -10 44 -25 -3 -16 14
-22 50 -18 55 6 55 5 56 -121 1 -69 10 -171 21 -226 75 -379 49 -710 -56 -710
-29 0 -68 -14 -87 -31 -54 -49 -86 28 -130 305 -36 233 -39 243 -73 212 -42
-38 -49 -166 -11 -226 20 -32 19 -45 -7 -70 -28 -28 -33 -26 -59 24 -15 31
-30 59 -32 63 -8 13 -80 -66 -93 -102 -25 -68 -145 17 -123 87 7 24 0 33 -25
31 -23 -2 -36 11 -37 37 0 23 -12 37 -28 34 -33 -7 -124 75 -109 99 6 9 2 17
-9 17 -11 0 -36 6 -56 13 -23 8 -10 -16 36 -65 68 -73 72 -85 66 -187 -4 -71
0 -98 13 -80 14 23 20 21 30 -15 7 -24 25 -48 40 -54 15 -6 28 -29 28 -51 0
-39 -5 -38 -95 18 -113 70 -142 60 -47 -17 59 -48 63 -57 32 -69 -49 -19 27
-102 123 -137 44 -16 67 -37 67 -62 0 -26 10 -35 30 -27 16 7 30 4 30 -5 0
-10 26 -28 59 -42 39 -16 63 -43 71 -82 13 -59 60 -79 75 -33 12 36 75 -19 75
-65 0 -21 14 -34 34 -33 23 2 43 -21 59 -67 14 -38 25 -63 26 -55 0 9 22 2 48
-15 25 -16 52 -26 60 -20 7 5 9 4 4 -2 -5 -7 13 -42 40 -77 27 -36 49 -85 49
-109 0 -24 14 -71 31 -104 32 -62 -8 -321 -54 -350 -9 -6 -17 -51 -17 -101 0
-80 -3 -87 -30 -60 -16 17 -30 54 -30 83 0 29 -10 72 -23 96 -13 24 -35 84
-48 134 -21 76 -23 34 -14 -280 6 -203 12 -406 13 -450 l2 -80 -156 0 c-134 0
-161 6 -190 41 -38 47 -247 49 -236 2 3 -13 2 -16 -3 -8 -15 27 -55 16 -89
-24 -48 -56 -218 -102 -428 -115 -237 -15 -298 -2 -446 97 -139 94 -156 132
-122 271 12 53 30 137 40 186 9 50 30 140 48 200 17 61 37 205 43 320 10 161
24 235 61 316 40 87 48 135 46 280 -2 95 -7 156 -12 134 -26 -106 -128 -122
-146 -23 l-10 56 -60 -51 c-74 -64 -80 -64 -154 -2 -52 44 -55 51 -23 61 175
55 207 99 87 119 -60 10 -80 23 -80 51 0 32 -16 37 -118 35 -130 -2 -128 2
-67 -136 34 -75 71 -120 100 -120 11 0 35 -18 55 -40 78 -86 -30 -41 -121 50
-50 49 -93 90 -97 90 -5 0 -16 -217 -14 -290 22 -969 22 -1336 -1 -1300 -15
25 -24 116 -24 245 0 113 -8 205 -17 205 -10 0 -17 66 -14 147 2 81 -1 155 -7
165 -6 10 -12 72 -14 138 -4 142 -6 111 17 450 10 149 18 351 17 450 -1 204
-7 175 -28 -140 l-14 -220 -16 130 c-9 72 -20 283 -25 470 -6 187 -15 430 -22
540 -13 220 2 417 32 399 10 -7 13 -22 5 -33 -8 -13 -4 -16 10 -8 41 26 61
-160 62 -585 1 -205 4 -225 33 -202 23 20 30 55 25 136 -4 63 2 113 13 116 12
4 21 -26 21 -68 2 -146 101 -283 187 -256 37 12 35 53 -15 261 -23 95 -8 130
58 130 40 0 59 10 59 32 0 24 -13 28 -62 18 -101 -23 -139 38 -150 236 -12
217 -19 271 -35 287 -7 8 -13 46 -13 85 l-1 72 -36 -47 c-50 -65 -56 -40 -51
244 3 222 23 309 58 253 28 -45 46 -269 24 -296 -14 -18 -13 -33 2 -48 26 -26
19 -41 95 209 56 181 63 192 108 150 21 -21 24 -10 15 60 -5 47 -3 85 5 85 19
0 13 240 -15 630 -47 638 -47 775 1 1444 1 13 8 20 15 16 14 -9 29 -175 53
-586 8 -140 20 -216 31 -200 9 14 11 79 4 144 -10 90 -7 114 12 102 19 -12 22
33 13 202 -6 120 -13 254 -15 298 -4 80 -4 80 -18 -20 -13 -92 -14 -87 -17 60
-1 110 4 151 17 130 21 -33 30 4 23 93 -2 24 6 50 18 58 15 9 21 -11 18 -64
-2 -42 1 -90 7 -107 10 -28 45 -409 67 -740 6 -82 18 -159 29 -169 10 -10 18
-58 18 -105 0 -47 8 -86 18 -86 20 0 11 183 -19 370 -11 66 -28 291 -39 500
-26 488 -40 632 -62 619 -10 -6 -18 7 -18 30 0 22 13 41 28 41 16 0 33 11 39
25 5 14 11 -6 11 -43 1 -37 15 -78 31 -90 22 -17 31 -109 40 -412 18 -577 29
-700 63 -686 22 8 23 17 7 37 -13 16 -25 135 -28 282 -7 303 36 311 59 10 7
-95 16 -182 20 -193 7 -22 17 187 11 220 -3 11 -12 61 -21 110 -9 50 -30 140
-46 200 -17 61 -35 178 -41 260 l-11 150 31 -130 c17 -71 42 -179 56 -240 l25
-110 15 276 c9 152 12 320 6 375 -5 54 -1 99 8 99 9 0 17 -37 17 -81 0 -49 8
-76 20 -69 11 7 20 -1 20 -18 0 -19 11 -26 30 -19 16 6 25 19 19 29 -6 10 -2
18 10 18 11 0 21 16 21 35 -1 30 -3 31 -20 5 -17 -26 -19 -25 -20 5 0 19 9 35
20 35 11 0 21 34 23 75 4 95 31 -229 38 -455 4 -124 9 -76 21 180 8 193 8 357
-1 367 -9 9 -10 45 -3 80 7 34 12 119 11 188 -2 69 4 125 13 125 8 0 15 -16
13 -35 -1 -19 9 -260 23 -535 13 -275 27 -590 30 -700 4 -110 4 88 2 440 -3
352 2 609 11 570 9 -38 11 -77 4 -88 -6 -10 -3 -13 8 -6 12 7 18 -50 16 -146
-1 -87 5 -154 14 -148 9 6 17 -4 17 -22 0 -18 8 -27 18 -21 25 15 42 -38 44
-146 2 -51 10 -120 19 -153 18 -64 7 229 -15 388 l-11 87 44 -44 c24 -24 57
-73 72 -108 28 -64 28 -63 37 42 1 13 18 42 37 65 23 26 32 62 26 105 -4 36
-9 72 -10 81 0 9 -10 11 -21 4 -11 -7 -20 6 -20 28 0 22 -13 47 -29 56 -19 11
-38 74 -51 166 -13 94 -32 155 -51 166 -46 25 -14 58 33 33 21 -12 33 -30 26
-42 -7 -11 -3 -58 9 -104 11 -45 26 -108 32 -139 7 -31 20 -51 30 -44 10 6 22
-14 27 -45 4 -30 10 53 13 185 7 314 35 215 41 -150 3 -148 12 -337 20 -420 9
-91 13 48 10 356 -4 486 11 620 39 344 7 -71 17 -287 22 -480 6 -204 18 -353
29 -357 11 -3 15 -26 10 -50 -6 -23 -2 -70 9 -103 22 -69 12 1143 -10 1235 -9
35 -6 55 9 55 12 0 22 -18 22 -40 0 -22 11 -38 25 -35 13 3 27 -15 31 -39 4
-26 17 -40 32 -34 20 8 29 -44 39 -216 34 -580 58 -727 96 -586 9 32 8 67 -1
79 -23 28 -41 298 -44 651 -2 357 -3 345 27 335 17 -6 32 -111 48 -347 l23
-338 -10 390 c-12 457 0 420 -140 420 -107 0 -110 -2 -101 -50 5 -27 2 -50 -8
-50 -9 0 -17 23 -17 50 0 28 -10 50 -21 50 -12 0 -16 -9 -9 -20 7 -11 3 -20
-9 -20 -11 0 -21 9 -21 20 0 13 -304 20 -871 20 l-872 0 10 -2125z m1451 1289
c1 -26 -7 -41 -18 -34 -11 7 -20 -2 -20 -19 0 -17 13 -31 29 -31 15 0 34 -18
41 -40 7 -21 19 -38 26 -37 34 5 64 -4 64 -19 0 -31 -103 -13 -123 21 -11 20
-28 31 -38 24 -23 -14 -26 237 -4 259 16 17 40 -52 43 -124z m-522 -94 c0 -58
0 -59 -16 -10 -9 28 -16 77 -16 110 0 58 0 59 16 10 9 -27 16 -77 16 -110z
m158 -70 c-8 -119 -34 -121 -34 -2 0 63 8 100 20 92 10 -6 17 -47 14 -90z
m-294 -11 c0 -43 -8 -66 -20 -59 -11 7 -20 -7 -20 -30 0 -23 -9 -37 -20 -30
-11 7 -19 46 -18 86 2 41 7 58 12 39 8 -33 49 -52 44 -20 -5 32 2 85 12 85 6
0 10 -32 10 -71z m138 -304 c-3 -256 -23 -240 -47 35 -4 50 -14 110 -22 135
-11 37 -8 43 19 33 21 -8 32 -2 32 20 0 18 5 32 10 32 6 0 9 -115 8 -255z
m2872 -1568 c13 -12 -74 -18 -235 -16 -147 2 -250 11 -243 21 6 10 19 13 29 7
11 -6 19 -4 19 6 0 22 405 6 430 -18z m-470 -178 l0 -119 -80 0 c-98 0 -99 16
-16 153 77 127 96 121 96 -34z m576 -54 c12 -30 31 -103 43 -162 12 -59 43
-163 69 -230 26 -68 79 -208 119 -313 39 -104 98 -254 130 -332 32 -78 70
-193 84 -255 22 -97 38 -123 111 -178 153 -116 223 -304 225 -605 1 -94 -4
-127 -16 -100 -9 22 -45 112 -80 200 -64 162 -67 151 -15 -54 83 -330 -120
-768 -276 -596 -20 22 -30 40 -22 40 8 0 -4 26 -26 57 -22 32 -36 62 -31 67 5
5 -12 33 -39 62 -60 64 -103 235 -133 524 -13 121 -40 349 -61 507 -21 158
-32 296 -26 306 17 27 -31 77 -74 77 -20 0 -47 19 -59 42 -14 26 -15 38 -2 30
11 -7 26 -4 33 8 11 18 -2 23 -42 19 -6 -1 -24 15 -38 34 -21 29 -61 38 -189
44 -237 11 -151 97 101 101 67 2 91 10 91 32 0 16 -4 25 -10 20 -5 -6 -31 4
-58 21 -26 17 -112 48 -191 68 -112 28 -144 44 -144 73 0 58 247 36 365 -33
92 -54 86 -3 -10 84 -105 95 -194 130 -239 94 -29 -24 -32 -23 -21 7 7 19 5
40 -4 46 -10 6 -21 -10 -26 -35 -4 -25 -8 29 -9 119 l-2 164 58 12 c32 7 58
22 58 33 0 11 11 13 24 4 14 -8 56 -20 95 -26 84 -14 114 -131 50 -194 -30
-31 -30 -35 4 -53 20 -11 62 -42 92 -70 l55 -51 -1 58 c0 33 -9 125 -19 206
-11 81 -15 156 -9 165 20 32 44 19 65 -37z m-3852 -349 c-4 -124 -12 -230 -17
-236 -6 -5 -8 100 -5 234 4 134 12 240 18 236 7 -4 9 -109 4 -234z m3272 191
c5 -36 -5 -44 -74 -50 -91 -9 -120 22 -69 74 46 45 135 30 143 -24z m4 -177
c0 -23 -24 -30 -100 -30 -93 0 -100 3 -100 50 0 40 10 50 49 50 27 0 54 9 61
19 15 25 90 -49 90 -89z m-1123 -482 c-12 -96 -217 -123 -217 -29 0 39 28 50
116 46 14 0 37 16 50 37 30 48 59 18 51 -54z m1371 -395 c50 -33 54 -43 41
-117 -37 -219 -30 -243 54 -201 60 30 65 29 98 -11 19 -23 40 -36 48 -29 7 8
7 -2 0 -21 -18 -45 -155 -139 -311 -213 l-123 -58 -232 81 c-262 91 -283 103
-282 163 0 55 83 217 109 216 11 0 35 14 54 30 18 17 42 26 52 19 11 -6 31 2
44 18 14 17 45 30 69 30 33 0 44 11 43 45 -2 38 7 44 61 40 39 -3 67 6 74 24
15 38 132 29 201 -16z m1864 -664 c-5 -13 -45 -25 -88 -25 -44 -1 -132 -10
-197 -21 -64 -11 -182 -26 -261 -34 l-144 -13 12 77 c15 100 17 101 146 115
103 10 176 19 372 43 81 10 100 41 62 103 -9 14 7 34 41 50 l55 27 6 -149 c3
-82 2 -159 -4 -173z m-2797 -270 c-7 -52 29 -108 54 -84 19 20 -11 -161 -32
-187 -9 -12 -10 -30 -2 -39 8 -10 -1 -5 -21 10 -24 19 -34 50 -31 102 3 42 -4
88 -14 102 -11 15 -18 45 -17 67 10 174 6 164 40 120 17 -22 27 -63 23 -91z
m45 -420 c0 -23 -8 -36 -18 -30 -11 6 -23 -4 -28 -24 -6 -23 -10 -18 -12 17
-1 28 4 57 11 65 26 25 47 13 47 -28z m-880 -89 c14 -17 20 -36 14 -43 -21
-20 -74 10 -74 42 0 40 28 40 60 1z m3329 -98 c137 -58 176 -250 71 -355 -71
-71 -88 -64 -117 48 -32 130 -64 162 -139 146 -101 -22 -82 -171 22 -171 41 0
37 -42 -5 -56 -16 -6 -21 0 -13 13 9 14 3 18 -15 11 -38 -14 -92 65 -105 155
-23 161 141 275 301 209z m-699 -93 c8 -56 9 -107 2 -114 -7 -6 -12 -1 -12 12
0 13 -15 23 -32 23 -26 0 -30 13 -20 63 6 34 12 74 12 90 0 71 38 15 50 -74z
m115 11 c26 -127 11 -320 -25 -320 -23 0 -33 36 -44 150 -8 83 -19 175 -25
206 -19 100 73 65 94 -36z m94 -120 c1 -198 -45 -152 -68 70 l-12 110 40 -50
c25 -31 40 -80 40 -130z m-2128 55 c-4 -52 -8 -97 -9 -99 -1 -2 -31 23 -66 55
-67 60 -66 69 9 110 70 39 74 35 66 -66z m209 -89 c0 -9 18 -16 40 -16 22 0
40 -9 40 -21 0 -12 52 -44 115 -72 146 -64 265 -187 265 -274 0 -24 -85 17
-110 53 -16 23 -34 37 -39 31 -6 -5 21 -47 59 -92 66 -77 91 -145 53 -145 -10
0 -79 56 -154 125 l-137 125 74 -98 c97 -128 69 -160 -70 -81 -14 8 6 -19 44
-59 l70 -75 -60 14 c-33 8 -71 23 -84 34 -71 55 -63 -8 10 -76 147 -138 82
-158 -69 -21 -100 90 -138 152 -198 316 -18 52 -43 93 -54 90 -11 -2 -24 7
-29 21 -5 14 0 25 12 25 12 0 22 23 22 52 0 62 103 167 161 162 21 -1 39 -10
39 -18z m2632 -848 c-16 -41 -683 -41 -698 0 -19 48 5 52 349 52 335 0 337 0
340 45 2 35 5 32 11 -12 5 -31 4 -69 -2 -85z m269 -90 c-8 -158 -10 -162 -22
-68 -7 57 -15 78 -18 50 -4 -39 -8 -42 -15 -13 -5 21 0 47 11 58 12 12 17 61
11 113 -9 78 -7 87 16 60 19 -23 23 -79 17 -200z m-1081 102 c0 -34 -13 -40
-90 -40 -77 0 -90 6 -90 40 0 34 13 40 90 40 77 0 90 -6 90 -40z m80 0 c0 -22
-13 -40 -30 -40 -17 0 -30 18 -30 40 0 22 13 40 30 40 17 0 30 -18 30 -40z
m1175 -294 c-4 -64 -7 -17 -8 104 0 121 4 173 8 116 4 -58 4 -157 0 -220z
m-5774 -196 l-15 -220 -3 163 c-3 142 13 299 27 283 3 -3 -1 -105 -9 -226z
m2419 -190 c0 -89 -9 -160 -19 -160 -12 0 -16 55 -10 135 7 94 4 123 -9 95
-18 -37 -19 -36 -21 12 0 28 5 57 12 65 36 35 47 0 47 -147z m3467 40 c-8 -40
-4 -60 12 -60 13 0 17 -10 10 -22 -8 -12 -3 -29 10 -37 14 -9 21 -37 17 -63
-6 -38 -14 -27 -43 57 -20 57 -30 122 -23 145 19 61 31 48 17 -20z m-772 -375
c-5 -41 -8 -7 -8 75 0 83 3 116 8 75 4 -41 4 -109 0 -150z m-60 -20 c-5 -41
-8 -7 -8 75 0 83 3 116 8 75 4 -41 4 -109 0 -150z m-4960 -460 c-4 -52 -8 -9
-8 95 0 105 4 147 8 95 4 -52 4 -138 0 -190z m1585 -460 c0 -18 -40 -25 -140
-25 -110 0 -140 6 -140 30 0 23 28 28 140 25 98 -3 140 -12 140 -30z m970 5
c0 -21 -257 -39 -304 -21 -16 6 -23 20 -16 32 17 27 320 16 320 -11z"/>
<path d="M3140 6674 c0 -11 91 -152 111 -172 37 -37 -3 48 -51 108 -33 42 -60
70 -60 64z"/>
<path d="M2100 11120 c0 -44 9 -80 20 -80 11 0 20 15 20 33 0 69 26 5 31 -77
29 -441 52 -594 52 -346 0 62 10 96 29 104 22 8 24 17 7 38 -13 15 -27 101
-32 192 -11 207 -14 216 -76 216 -46 0 -51 -8 -51 -80z"/>
<path d="M2341 11145 c5 -177 32 -237 41 -90 6 107 1 145 -17 145 -14 0 -24
-24 -24 -55z"/>
<path d="M2480 11170 c-3 -22 -4 -62 -3 -90 2 -27 2 -151 2 -275 -1 -144 7
-225 20 -225 12 0 21 -22 21 -50 0 -27 10 -50 21 -50 31 0 12 440 -26 600 -17
72 -32 112 -35 90z"/>
<path d="M2597 10985 c-4 -295 -1 -349 21 -371 12 -12 19 58 19 194 1 118 7
254 14 303 11 74 8 89 -19 89 -27 0 -32 -32 -35 -215z"/>
<path d="M2712 11183 c-15 -25 27 -123 53 -123 21 0 2 100 -24 127 -9 9 -22 7
-29 -4z"/>
<path d="M2854 11167 c6 -15 23 -27 38 -27 15 0 28 -15 28 -32 0 -27 -5 -28
-30 -8 -23 19 -30 19 -30 1 0 -13 -12 -36 -27 -51 -33 -33 -60 -413 -31 -431
10 -7 23 -74 28 -151 24 -347 48 -384 42 -64 -3 173 2 317 11 320 9 3 6 41 -8
85 -19 61 -19 80 1 86 13 5 24 41 24 80 0 39 4 68 9 62 11 -10 26 -199 41
-494 20 -403 51 -295 40 137 -13 507 -15 518 -90 516 -39 -1 -53 -10 -46 -29z"/>
<path d="M3231 11182 c-6 -10 -8 -30 -4 -45 3 -15 3 -20 -2 -12 -26 47 -36 -3
-29 -138 5 -102 18 -164 38 -184 27 -27 26 -33 -7 -57 -29 -22 -31 -31 -10
-44 19 -12 23 -36 14 -79 -8 -34 -4 -78 7 -97 11 -20 21 -27 22 -16 3 81 40
-67 42 -170 1 -90 6 -115 17 -80 18 62 1 364 -29 525 -6 31 0 76 13 100 l23
44 19 -50 c33 -82 71 -329 52 -336 -26 -10 -20 -63 8 -63 17 -1 15 -7 -5 -20
-16 -11 -22 -20 -13 -20 10 0 6 -14 -8 -31 -21 -26 -21 -30 3 -25 21 5 27 -14
22 -81 -3 -48 3 -98 13 -110 10 -13 15 -54 10 -93 -12 -115 -10 -183 8 -330
l18 -140 15 153 c9 85 10 164 3 176 -8 12 -7 127 2 256 14 199 18 220 29 135
11 -93 12 -90 15 48 2 81 17 218 35 305 28 140 28 162 1 217 -16 33 -21 60
-11 60 12 0 11 16 -2 40 -39 73 1 167 55 129 25 -17 45 -48 45 -69 0 -49 37
-71 52 -31 33 84 38 -30 35 -794 -2 -839 17 -1121 40 -582 18 447 32 680 51
857 l16 160 3 -154 c2 -84 10 -158 20 -164 9 -5 14 129 11 299 -3 184 3 305
14 298 10 -6 19 -36 19 -65 2 -48 4 -50 19 -14 14 32 17 25 19 -36 0 -42 9
-92 19 -110 10 -19 23 -186 28 -371 13 -381 23 -428 42 -189 20 255 45 471 49
425 2 -23 14 -52 28 -66 16 -16 26 -119 29 -319 9 -530 34 -588 55 -125 13
307 46 543 48 351 1 -44 9 -147 19 -230 9 -82 10 -165 1 -184 -23 -46 -22
-474 1 -438 10 16 25 108 32 206 8 98 18 175 22 170 10 -9 22 -117 27 -234 3
-64 8 -79 19 -51 24 61 37 13 39 -149 4 -245 27 -580 41 -580 12 0 11 62 -12
470 -6 121 -1 346 13 500 21 243 32 396 39 536 1 20 11 31 23 23 13 -8 17 -53
10 -116 -6 -57 -15 -246 -21 -420 -7 -175 -12 -323 -13 -330 -5 -38 6 -49 22
-24 30 48 37 23 60 -228 12 -131 28 -244 34 -250 15 -14 -8 424 -31 599 -16
119 -11 814 7 980 5 39 9 105 9 148 1 43 8 72 16 65 7 -8 12 -94 10 -192 -2
-98 4 -184 15 -190 10 -7 14 -83 9 -175 -7 -117 -3 -167 15 -178 19 -12 20
-27 1 -67 -13 -28 -15 -51 -6 -51 28 0 43 -87 18 -103 -17 -10 -14 -40 9 -110
l33 -97 3 140 c2 77 4 165 4 196 1 156 41 -9 50 -209 6 -128 22 -244 36 -267
19 -30 24 -192 22 -650 -3 -619 13 -652 36 -70 23 611 26 809 10 799 -17 -10
-22 330 -5 357 5 9 9 148 7 310 -3 305 7 359 28 154 7 -66 25 -214 40 -330 32
-243 25 -1334 -9 -1368 -11 -11 -19 -106 -18 -211 3 -210 0 -219 47 119 5 39
10 123 10 188 1 167 18 131 32 -69 21 -297 31 -199 18 182 -17 526 7 1282 42
1317 14 14 14 42 2 -788 -4 -275 -1 -635 7 -800 11 -265 13 -237 14 240 1 574
19 910 50 910 11 0 13 -39 5 -92 -9 -57 -4 -136 12 -204 21 -86 22 -113 3
-119 -29 -10 -33 -1367 -4 -1495 16 -70 18 -63 11 50 -10 156 13 128 69 -85
34 -130 38 -137 39 -65 1 151 -23 290 -52 290 -19 0 -27 30 -28 105 -1 82 -6
96 -21 65 -14 -31 -16 -24 -8 30 6 39 15 120 20 180 44 527 55 631 70 660 10
18 14 163 10 321 -6 198 -2 276 11 249 15 -31 18 -19 11 50 -8 88 27 345 50
368 6 7 9 -35 5 -93 -7 -127 -45 -861 -55 -1085 -4 -88 -4 -135 1 -105 6 31
16 52 23 47 8 -4 11 43 7 105 -8 123 14 128 39 8 16 -75 16 -75 12 18 -2 51 3
89 11 84 8 -5 15 -61 15 -123 -1 -87 -6 -107 -22 -84 -18 25 -20 24 -10 -7 7
-20 14 -132 16 -250 l4 -213 11 220 11 220 17 -195 c15 -172 53 -277 53 -146
0 27 7 53 15 58 8 5 9 -96 2 -224 -19 -334 -17 -1246 3 -1293 9 -23 17 191 18
500 0 297 6 608 11 690 6 83 11 355 12 605 1 250 8 455 15 455 8 0 26 28 41
61 47 106 43 200 49 -1311 1 -253 1 -662 0 -908 -2 -272 4 -438 15 -420 10 15
18 465 17 1015 0 543 5 992 11 998 6 7 11 -136 11 -317 0 -423 23 -966 39
-940 7 12 11 -58 9 -154 -29 -1300 -30 -1584 -8 -1584 17 0 20 29 10 103 -10
73 -8 98 8 88 16 -10 23 59 24 243 0 141 2 544 4 896 2 352 -9 846 -23 1097
-16 295 -18 465 -6 480 11 13 26 181 33 373 14 334 30 481 30 265 0 -57 9
-108 20 -115 11 -7 20 -26 20 -42 0 -17 -9 -25 -20 -18 -11 7 -20 -6 -20 -29
0 -22 9 -41 20 -41 11 0 20 -14 20 -31 0 -20 -9 -26 -25 -16 -18 10 -17 5 2
-18 14 -18 21 -43 14 -54 -8 -12 -4 -21 8 -21 12 0 22 49 23 115 1 63 5 165 9
225 4 61 12 200 18 310 15 264 29 370 52 370 10 0 14 -11 10 -25 -19 -63 -31
-555 -13 -555 28 0 42 293 54 1075 l9 685 -1266 0 -1266 0 -1 -245 c0 -283
-13 -577 -24 -566 -4 4 -8 146 -9 314 0 169 -5 350 -10 402 l-9 95 -87 0 c-48
0 -92 -8 -98 -18z m834 -357 c5 -58 1 -105 -8 -105 -9 0 -16 56 -15 125 1 142
11 134 23 -20z m353 -340 c-1 -173 -9 -369 -17 -435 l-15 -120 -5 140 c-3 77
-4 151 -3 163 2 13 -6 30 -17 37 -12 7 -21 30 -21 52 0 22 9 35 20 28 13 -8
20 70 20 219 0 141 8 231 20 231 13 0 19 -117 18 -315z m56 90 c-4 -36 -8 -11
-8 55 0 66 4 95 8 65 5 -30 5 -84 0 -120z m725 -10 c-1 -41 0 -160 2 -265 5
-275 1 -408 -12 -395 -16 16 -29 591 -16 670 15 87 29 82 26 -10z m-1014 -112
c-13 -98 -44 -58 -45 56 0 68 4 75 27 50 18 -19 24 -56 18 -106z m530 -208
c-5 -41 -8 -12 -8 65 -1 77 3 111 7 75 5 -35 5 -98 1 -140z m922 -90 c1 -221
-11 -285 -47 -255 -18 15 -21 43 -10 96 29 137 36 244 18 255 -10 6 -18 20
-18 31 0 11 9 15 20 8 11 -7 14 1 8 19 -7 17 -3 31 8 31 12 0 21 -74 21 -185z
m-245 92 c-7 -17 -1 -46 13 -63 19 -25 20 -28 0 -17 -14 9 -25 6 -25 -6 0 -11
8 -21 18 -21 31 0 48 -219 45 -570 -1 -187 4 -385 12 -440 8 -55 11 -140 5
-190 l-11 -90 -14 98 c-8 54 -15 155 -15 225 0 70 -8 127 -17 127 -28 0 -45
342 -23 459 14 73 14 115 0 129 -22 22 -28 357 -7 379 23 23 32 14 19 -20z
m558 -111 c8 -48 3 -74 -14 -81 -19 -7 -24 12 -19 79 8 102 17 103 33 2z m-79
-231 c-26 -26 -34 18 -18 99 l17 86 6 -87 c4 -48 1 -92 -5 -98z m-166 0 c5
-106 1 -133 -15 -108 -20 29 -18 277 2 258 4 -4 10 -72 13 -150z m-80 -163
c13 -49 -3 -188 -23 -201 -9 -6 -21 -24 -26 -41 -14 -40 -56 115 -49 181 11
97 78 139 98 61z m-410 -337 c-5 -41 -8 -7 -8 75 0 83 3 116 8 75 4 -41 4
-109 0 -150z m460 -80 c-5 -41 -8 -12 -8 65 -1 77 3 111 7 75 5 -35 5 -98 1
-140z m-315 16 c0 -77 -3 -84 -25 -54 -15 20 -23 70 -18 116 10 107 42 60 43
-62z"/>
<path d="M3087 10960 c0 -115 4 -163 8 -105 4 58 4 152 0 210 -4 58 -8 11 -8
-105z"/>
<path d="M2360 10635 c0 -134 9 -238 20 -245 11 -7 21 -50 22 -96 3 -81 31
-227 36 -182 7 66 -55 731 -70 746 -4 5 -8 -96 -8 -223z"/>
<path d="M3080 10640 c0 -59 6 -100 14 -92 14 14 9 175 -6 190 -4 5 -8 -39 -8
-98z"/>
<path d="M2595 10553 c-8 -20 -14 -150 -12 -290 l2 -253 18 180 c20 205 15
421 -8 363z"/>
<path d="M2504 10236 c3 -145 6 -167 10 -76 4 72 17 150 29 174 18 35 16 50
-10 76 -31 30 -33 17 -29 -174z"/>
<path d="M2755 10277 c-23 -82 6 -324 30 -252 10 30 27 55 37 55 28 0 21 74
-10 106 -16 15 -32 54 -36 86 l-6 58 -15 -53z"/>
<path d="M3840 9880 c0 -246 4 -442 10 -437 14 15 18 856 3 871 -7 7 -13 -188
-13 -434z"/>
<path d="M3622 10190 c2 -96 2 -98 21 -34 12 42 11 77 -2 100 -15 26 -19 10
-19 -66z"/>
<path d="M3360 10099 c0 -63 -8 -97 -20 -89 -12 8 -19 -24 -17 -84 1 -53 6
-76 11 -51 5 25 17 40 27 34 11 -7 19 52 19 140 0 83 -4 151 -10 151 -5 0 -10
-46 -10 -101z"/>
<path d="M2993 10065 c14 -155 27 -159 27 -8 0 68 -9 123 -19 123 -11 0 -15
-48 -8 -115z"/>
<path d="M3107 9990 c0 -77 3 -106 8 -65 4 42 4 105 -1 140 -4 36 -8 2 -7 -75z"/>
<path d="M2333 10036 c-7 -25 -11 -91 -10 -146 2 -91 4 -88 17 40 16 147 13
182 -7 106z"/>
<path d="M1453 9925 c21 -154 44 -191 46 -72 1 111 -13 167 -41 167 -9 0 -12
-43 -5 -95z"/>
<path d="M2847 9925 c-12 -57 -14 -99 -5 -94 21 13 45 138 34 172 -5 14 -18
-21 -29 -78z"/>
<path d="M4000 9990 c-1 -11 0 -159 2 -330 3 -170 4 -409 4 -530 0 -129 6
-203 15 -180 22 54 21 970 -1 1020 -9 22 -18 31 -20 20z"/>
<path d="M776 9795 c10 -140 19 -152 22 -30 1 63 -5 115 -14 115 -8 0 -12 -38
-8 -85z"/>
<path d="M4063 9741 c-2 -72 4 -121 14 -110 9 10 11 69 3 129 l-14 110 -3
-129z"/>
<path d="M4642 9666 c-1 -57 5 -108 14 -113 8 -6 13 -57 11 -116 -3 -58 4
-119 14 -136 11 -20 18 54 18 205 1 138 -7 232 -17 225 -10 -6 -23 0 -29 14
-5 14 -11 -22 -11 -79z"/>
<path d="M1482 9640 c0 -120 28 -238 45 -188 7 23 1 90 -15 150 -26 97 -29
101 -30 38z"/>
<path d="M5980 9531 c0 -139 -26 -215 -46 -136 -5 19 -10 -59 -12 -175 -1
-115 7 -241 17 -280 21 -78 29 -216 21 -380 l-5 -110 -16 90 c-9 50 -18 135
-20 190 l-5 100 -15 -110 c-8 -60 -16 -172 -17 -248 -1 -76 -8 -133 -15 -126
-7 7 -11 56 -10 109 1 52 -7 122 -17 155 -20 62 -10 -360 21 -870 14 -241 14
-237 12 124 -2 205 4 360 13 344 9 -15 17 -92 18 -170 0 -88 7 -132 18 -115
14 21 17 19 18 -8 0 -19 -7 -35 -17 -35 -9 0 -16 -13 -16 -29 0 -16 7 -25 16
-19 10 6 17 -46 17 -116 0 -69 8 -138 17 -152 9 -14 15 175 12 420 -2 264 2
385 10 296 8 -84 15 191 16 625 2 426 -1 775 -6 775 -5 0 -9 -67 -9 -149z"/>
<path d="M4143 9395 c-1 -129 4 -235 12 -235 8 0 13 74 10 165 -10 286 -18
314 -22 70z"/>
<path d="M4347 9130 c0 -99 3 -142 8 -96 4 47 4 128 0 180 -4 53 -8 15 -8 -84z"/>
<path d="M3867 9110 c0 -77 3 -106 8 -65 4 42 4 105 -1 140 -4 36 -8 2 -7 -75z"/>
<path d="M4684 9020 c-2 -115 -8 -381 -13 -590 l-8 -380 18 320 c11 176 17
442 13 590 -5 257 -5 260 -10 60z"/>
<path d="M4251 9062 c7 -109 19 -155 44 -173 50 -36 50 -30 7 113 -21 70 -44
146 -50 168 -6 22 -6 -27 -1 -108z"/>
<path d="M5313 8847 c-7 -8 -13 -68 -13 -134 0 -154 26 -131 30 27 2 66 2 120
0 120 -2 0 -9 -6 -17 -13z"/>
<path d="M4575 8492 c-22 -146 -19 -251 7 -207 11 19 17 96 14 170 l-6 135
-15 -98z"/>
<path d="M5340 8412 c0 -49 -5 -103 -12 -120 -7 -18 -3 -32 8 -32 11 0 23 54
27 120 4 66 0 120 -8 120 -8 0 -15 -40 -15 -88z"/>
<path d="M5380 8366 c0 -55 -4 -171 -9 -258 -6 -87 -5 -141 2 -120 9 31 15 33
30 10 13 -18 16 54 9 210 -11 241 -32 343 -32 158z"/>
<path d="M626 8240 c0 -71 4 -101 8 -65 5 36 5 94 0 130 -4 36 -8 7 -8 -65z"/>
<path d="M5786 8130 c0 -66 4 -91 8 -55 5 36 5 90 0 120 -4 30 -8 1 -8 -65z"/>
<path d="M5044 8150 c0 -33 7 -105 15 -160 15 -98 16 -98 17 -20 1 44 -6 116
-15 160 -14 68 -16 71 -17 20z"/>
<path d="M4668 7710 c0 -176 3 -245 7 -154 4 91 4 235 0 320 -4 85 -7 10 -7
-166z"/>
<path d="M5322 7850 c2 -224 33 -328 35 -120 1 99 -6 194 -17 210 -14 21 -19
-6 -18 -90z"/>
<path d="M4905 7780 c0 -49 7 -117 15 -150 l15 -60 1 60 c1 33 -6 101 -15 150
l-16 90 0 -90z"/>
<path d="M5075 7595 c9 -433 18 -469 21 -90 2 195 -3 355 -11 355 -8 0 -13
-119 -10 -265z"/>
<path d="M647 7050 c0 -99 3 -142 8 -96 4 47 4 128 0 180 -4 53 -8 15 -8 -84z"/>
<path d="M516 7128 c-19 -28 -61 -302 -52 -330 4 -13 26 -6 54 16 45 36 46 45
29 187 -9 82 -24 139 -31 127z"/>
<path d="M666 6520 c0 -71 4 -101 8 -65 5 36 5 94 0 130 -4 36 -8 7 -8 -65z"/>
<path d="M5647 6420 c0 -115 4 -163 8 -105 4 58 4 152 0 210 -4 58 -8 11 -8
-105z"/>
<path d="M5960 6545 c0 -30 -6 -118 -13 -195 -7 -77 -6 -134 1 -127 20 18 46
377 28 377 -9 0 -16 -25 -16 -55z"/>
<path d="M6 6470 c0 -66 4 -91 8 -55 5 36 5 90 0 120 -4 30 -8 1 -8 -65z"/>
<path d="M564 6356 c-13 -13 -24 -42 -24 -65 0 -23 -8 -53 -18 -68 -11 -18 -6
-42 15 -66 31 -37 34 -32 44 87 13 145 14 143 -17 112z"/>
<path d="M1800 6260 c22 -32 54 -90 71 -129 39 -95 82 -66 165 111 3 7 -16 9
-43 3 -27 -5 -90 10 -142 32 l-93 41 42 -58z"/>
<path d="M5904 5750 c2 -374 28 -805 37 -620 6 132 9 107 19 -140 l12 -300 3
290 c5 347 -24 850 -52 920 -16 38 -20 3 -19 -150z"/>
<path d="M1700 5865 c0 -4 21 -36 48 -71 26 -35 62 -97 81 -137 46 -99 83
-111 99 -32 15 73 -35 142 -90 124 -23 -7 -43 3 -57 29 -34 63 -27 92 14 60
30 -22 31 -22 10 2 -22 25 -105 45 -105 25z"/>
<path d="M166 5660 c0 -71 4 -101 8 -65 5 36 5 94 0 130 -4 36 -8 7 -8 -65z"/>
<path d="M5851 5480 c25 -511 33 -631 43 -640 15 -14 -14 568 -34 701 -15 94
-16 85 -9 -61z"/>
</g>
</svg>
